<?xml version="1.0" encoding="UTF-8" standalone="no"?>
<!-- Created with Inkscape (http://www.inkscape.org/) -->

<svg
   version="1.1"
   id="svg2"
   width="200"
   height="200"
   viewBox="0 0 200 200"
   sodipodi:docname="E_ur.svg"
   inkscape:version="1.2.2 (732a01da63, 2022-12-09)"
   xmlns:inkscape="http://www.inkscape.org/namespaces/inkscape"
   xmlns:sodipodi="http://sodipodi.sourceforge.net/DTD/sodipodi-0.dtd"
   xmlns="http://www.w3.org/2000/svg"
   xmlns:svg="http://www.w3.org/2000/svg">
  <defs
     id="defs6">
    <inkscape:path-effect
       effect="knot"
       id="path-effect280"
       is_visible="true"
       lpeversion="1"
       switcher_size="15"
       interruption_width="3"
       prop_to_stroke_width="true"
       add_stroke_width="inkscape_1.0_and_up"
       both="false"
       inverse_width="false"
       add_other_stroke_width="inkscape_1.0_and_up"
       crossing_points_vector="" />
  </defs>
  <sodipodi:namedview
     id="namedview4"
     pagecolor="#ffffff"
     bordercolor="#000000"
     borderopacity="0.25"
     inkscape:showpageshadow="2"
     inkscape:pageopacity="0.0"
     inkscape:pagecheckerboard="0"
     inkscape:deskcolor="#d1d1d1"
     showgrid="false"
     inkscape:zoom="2.1175"
     inkscape:cx="97.992916"
     inkscape:cy="157.02479"
     inkscape:window-width="958"
     inkscape:window-height="1018"
     inkscape:window-x="953"
     inkscape:window-y="0"
     inkscape:window-maximized="0"
     inkscape:current-layer="g8" />
  <g
     inkscape:groupmode="layer"
     inkscape:label="Image"
     id="g8">
    <path
       style="fill:#ffffff;fill-opacity:1;stroke:#0d1117;stroke-width:2.04705;stroke-linecap:round;stroke-linejoin:round;stroke-dasharray:none;stroke-opacity:1;paint-order:stroke markers fill"
       d="M 170.23304,5.0329403 C 191.57308,10.50334 202.546,32.758 193.27983,51.77518 182.21837,74.47688 148.15739,69.93189 145.92776,45.45665 144.38712,28.54466 164.03178,18.14266 175.45267,29.823 c 7.81151,7.98896 3.14925,24.11541 -5.58916,19.33253 -5.3964,-2.95368 -3.23374,-10.35719 3.02547,-10.35719 5.37512,0 5.88269,-0.67861 3.67009,-4.9068 -6.83651,-13.06433 -27.01561,-5.09379 -26.9268,10.6358 0.1514,26.81504 40.68135,25.51316 42.86175,-1.37678 2.45247,-30.24546 -33.39858,-44.3090497 -54.62324,-21.4275 -12.98883,14.00277 -12.24003,42.60721 1.11536,42.60721 6.82416,0 12.83705,2.286 15.88172,6.03793 2.63693,3.24949 -5.87908,4.34128 -13.34445,1.71083 -7.62842,-2.68793 -7.76722,-2.41621 -2.4235,4.74443 6.69435,8.97049 20.98598,18.57416 23.83616,16.01736 8.03685,-7.20955 26.51711,-10.39607 31.38998,-5.4125 2.75812,2.82076 -11.7268,9.1924 -20.76324,9.13335 -9.40879,-0.0615 -9.37943,-0.30747 -0.57017,4.77711 32.10641,18.53134 31.68974,64.84327 -0.64722,71.93585 -28.38551,6.22589 -45.98865,-34.44293 -19.40288,-44.82678 17.17824,-6.70945 33.50096,12.11817 21.88559,25.24419 -4.76926,5.38953 -13.46534,2.11195 -10.32395,-3.89113 1.73853,-3.32226 6.10504,-3.45904 7.9548,-0.24919 1.95097,3.38548 4.10199,-0.0627 4.08943,-6.55549 -0.0306,-15.84409 -21.80311,-18.68538 -28.73315,-3.74965 -10.63317,22.91676 18.87378,40.10679 37.00842,21.5602 15.48845,-15.84029 6.56114,-44.07355 -18.51469,-58.55406 -3.61792,-2.08925 -9.91793,-5.76818 -14.00001,-8.1754 l -7.42198,-4.37677 -0.0107,13.19182 c -0.009,11.11583 -0.51823,14.2409 -3.23583,19.85817 l -3.22513,6.66634 -2.80835,-4.53623 c -4.79541,-7.74588 -4.66396,-20.76702 0.31065,-30.77197 l 4.06447,-8.17446 -5.49573,-6.31663 C 125.16692,68.90607 121.99231,60.23844 121.96755,45.4374 l -0.0212,-12.6824 -3.02589,2.90724 c -2.04278,1.9627 -5.37008,3.10607 -10.24106,3.51918 -6.74043,0.57166 -7.32181,0.91352 -8.835716,5.19527 -2.67798,7.57403 -15.01844,16.89215 -15.00218,11.32793 0.0101,-3.45835 5.53568,-10.87514 10.19803,-13.68848 l 4.78081,-2.88482 -3.87261,-2.40858 c -2.12994,-1.3247 -8.38576,-7.1998 -13.90182,-13.05579 -20.29599,-21.5465997 -40.38549,-20.1973497 -47.23164,3.17221 -6.66115,22.73793 25.05159,38.74935 34.96952,17.65571 5.65765,-12.03277 -9.24079,-25.47711 -18.61646,-16.79948 -4.27717,3.9587 -3.57295,6.99178 1.61968,6.97598 6.04537,-0.0183 6.78668,7.98307 0.80521,8.69111 -10.87793,1.2876 -10.19902,-16.69532 0.77008,-20.39768 17.7635,-5.99566 25.49592,22.05938 8.60526,31.22201 -22.44346,12.17486 -45.96002,-15.95941 -31.7265,-37.95628 10.28486,-15.89451972 29.44112,-16.35862972 46.36492,-1.1233 6.32376,5.69285 6.32945,5.69471 5.36184,1.7519 -1.05962,-4.31769 0.0936,-11.8733397 1.81212,-11.8733397 2.22504,0 4.43067,8.5091297 3.76686,14.5322097 -0.78234,7.09856 2.73368,11.38704 11.861996,14.46811 15.44865,5.21431 27.35287,-9.8595 17.36922,-21.99392 -6.08799,-7.3995197 -18.434986,-4.3719597 -18.434986,4.52035 0,5.06003 1.306046,6.08582 3.645906,2.8636 1.54123,-2.12244 2.42401,-2.35232 4.37177,-1.13841 6.16634,3.84308 1.49216,10.99288 -4.89951,7.49444 -9.742876,-5.33267 -4.494956,-22.1264897 6.91435,-22.1264897 8.92719,0 15.94441,7.3999597 15.94441,16.8140397 v 4.53017 l 6.00723,-7.02317 C 140.81162,6.8383003 156.71515,1.5677103 170.23303,5.0329403 Z m -139.967376,3.05809 c -2.40419,2.4669197 -4.65966,5.3812397 -5.01214,6.4762797 -0.50349,1.56417 -1.64055,1.21112 -5.30454,-1.64703 C 17.383934,10.9194 12.564904,8.0489503 9.2400143,6.5414703 l -6.16477,-2.80192 15.8405697,-0.0363 15.7211,-0.0974 -4.37125,4.48535 z M 196.72484,181.98418 c -0.0678,10.68537 0.41228,16.97072 -0.18893,14.94939 -1.49888,-5.03943 -6.2851,-12.57414 -10.04394,-17.7096 -1.80564,-2.46694 -2.64483,-4.48534 -1.86487,-4.48534 0.77997,0 3.84714,-2.48419 6.81593,-5.52042 l 5.3978,-5.52042 z"
       id="path237"
       sodipodi:nodetypes="ssssssssssssssssssssssssssssccscsscsscssssscssssscsssssssssssssssscssscssscccccssssscs" />
  </g>
</svg>
