<svg height="440" viewbox="0 0 760 440" width="760" xmlns="http://www.w3.org/2000/svg">
 <style>
  * {
        font-family: 'Segoe UI', Ubuntu, "Helvetica Neue", Sans-Serif
        }
 </style>
 <rect fill="#00000000" height="99%" rx="5" ry="5" stroke="#000000" stroke-opacity="0" stroke-width="1" width="99.71428571428571%" x="1" y="1">
 </rect>
 <!-- UL -->
 <g transform="translate(0,0) translate(50, 50) scale(1,-1) translate(-50, -50) scale(0.4)">
  <svg height="200" id="svg2" inkscape:version="1.2.2 (732a01da63, 2022-12-09)" sodipodi:docname="E.svg" version="1.1" viewbox="0 0 200 200" width="200" xmlns="http://www.w3.org/2000/svg" xmlns:inkscape="http://www.inkscape.org/namespaces/inkscape" xmlns:sodipodi="http://sodipodi.sourceforge.net/DTD/sodipodi-0.dtd" xmlns:svg="http://www.w3.org/2000/svg">
   <defs id="defs6">
    <inkscape:path-effect add_other_stroke_width="inkscape_1.0_and_up" add_stroke_width="inkscape_1.0_and_up" both="false" crossing_points_vector="" effect="knot" id="path-effect280" interruption_width="3" inverse_width="false" is_visible="true" lpeversion="1" prop_to_stroke_width="true" switcher_size="15">
    </inkscape:path-effect>
   </defs>
   <sodipodi:namedview bordercolor="#000000" borderopacity="0.25" id="namedview4" inkscape:current-layer="g8" inkscape:cx="97.992916" inkscape:cy="157.02479" inkscape:deskcolor="#d1d1d1" inkscape:pagecheckerboard="0" inkscape:pageopacity="0.0" inkscape:showpageshadow="2" inkscape:window-height="1018" inkscape:window-maximized="0" inkscape:window-width="958" inkscape:window-x="953" inkscape:window-y="0" inkscape:zoom="2.1175" pagecolor="#ffffff" showgrid="false">
   </sodipodi:namedview>
   <g id="g8" inkscape:groupmode="layer" inkscape:label="Image">
    <path d="M 29.686839,195.88256 C 8.3467987,190.41216 -2.6261213,168.1575 6.6400487,149.14032 c 11.0614603,-22.7017 45.1224403,-18.15671 47.3520703,6.31853 1.54064,16.91199 -18.10402,27.31399 -29.52491,15.63365 -7.81151,-7.98896 -3.14925,-24.11541 5.58916,-19.33253 5.3964,2.95368 3.23374,10.35719 -3.02547,10.35719 -5.37512,0 -5.88269,0.67861 -3.67009,4.9068 6.83651,13.06433 27.01561,5.09379 26.9268,-10.6358 -0.1514,-26.81504 -40.6813503,-25.51316 -42.8617503,1.37678 -2.45247,30.24546 33.3985803,44.30905 54.6232403,21.4275 12.98883,-14.00277 12.24003,-42.60721 -1.11536,-42.60721 -6.82416,0 -12.83705,-2.286 -15.88172,-6.03793 -2.63693,-3.24949 5.87908,-4.34128 13.34445,-1.71083 7.62842,2.68793 7.76722,2.41621 2.4235,-4.74443 -6.69435,-8.97049 -20.98598,-18.57416 -23.83616,-16.01736 -8.03685,7.20955 -26.51711,10.39607 -31.3899803,5.4125 -2.75812,-2.82076 11.7268003,-9.1924 20.7632403,-9.13335 9.40879,0.0615 9.37943,0.30747 0.57017,-4.777107 -32.1064103,-18.531345 -31.6897403,-64.843277 0.64722,-71.93585 28.38551,-6.225888 45.98865,34.442931 19.40288,44.826773 -17.17824,6.709458 -33.50096,-12.118165 -21.88559,-25.244182 4.76926,-5.389536 13.46534,-2.111955 10.32395,3.891129 -1.73853,3.322258 -6.10504,3.459038 -7.9548,0.249184 -1.95097,-3.385472 -4.10199,0.06268 -4.08943,6.555496 0.0306,15.844089 21.80311,18.685375 28.73315,3.749648 10.63317,-22.916756 -18.87378,-40.106786 -37.00842,-21.560202 -15.48845034,15.840288 -6.5611403,44.073549 18.51469,58.554062 3.61792,2.089249 9.91793,5.768179 14.00001,8.175399 l 7.42198,4.37677 0.0107,-13.191821 c 0.009,-11.115824 0.51823,-14.240903 3.23583,-19.858165 l 3.22513,-6.666347 2.80835,4.536231 c 4.79541,7.745882 4.66396,20.767025 -0.31065,30.771972 l -4.06447,8.17446 5.49573,6.31663 c 9.31946,10.71152 12.49407,19.37915 12.51883,34.18019 l 0.0212,12.6824 3.02589,-2.90724 c 2.04278,-1.9627 5.37008,-3.10607 10.24106,-3.51918 6.74043,-0.57166 7.32181,-0.91352 8.835711,-5.19527 2.67798,-7.57403 15.01844,-16.89215 15.00218,-11.32793 -0.0101,3.45835 -5.53568,10.87514 -10.19803,13.68848 l -4.78081,2.88482 3.87261,2.40858 c 2.12994,1.3247 8.38576,7.1998 13.90182,13.05579 20.29599,21.5466 40.38549,20.19735 47.23164,-3.17221 6.66115,-22.73793 -25.05159,-38.74935 -34.96952,-17.65571 -5.65765,12.03277 9.24079,25.47711 18.61646,16.79948 4.27717,-3.9587 3.57295,-6.99178 -1.61968,-6.97598 -6.04537,0.0183 -6.78668,-7.98307 -0.80521,-8.69111 10.87793,-1.2876 10.19902,16.69532 -0.77008,20.39768 -17.7635,5.99566 -25.49592,-22.05938 -8.60526,-31.22201 22.44346,-12.17486 45.96002,15.95941 31.7265,37.95628 -10.28486,15.89452 -29.44112,16.35863 -46.36492,1.1233 -6.32376,-5.69285 -6.32945,-5.69471 -5.36184,-1.7519 1.05962,4.31769 -0.0936,11.87334 -1.81212,11.87334 -2.22504,0 -4.43067,-8.50913 -3.76686,-14.53221 0.78234,-7.09856 -2.73368,-11.38704 -11.861991,-14.46811 -15.44865,-5.21431 -27.35287,9.8595 -17.36922,21.99392 6.08799,7.39952 18.434981,4.37196 18.434981,-4.52035 0,-5.06003 -1.306041,-6.08582 -3.645901,-2.8636 -1.54123,2.12244 -2.42401,2.35232 -4.37177,1.13841 -6.16634,-3.84308 -1.49216,-10.99288 4.89951,-7.49444 9.742871,5.33267 4.494951,22.12649 -6.91435,22.12649 -8.92719,0 -15.94441,-7.39996 -15.94441,-16.81404 v -4.53017 l -6.00723,7.02317 c -9.48443,11.08842 -25.38796,16.35901 -38.90584,12.89378 z m 139.967371,-3.05809 c 2.40419,-2.46692 4.65966,-5.38124 5.01214,-6.47628 0.50349,-1.56417 1.64055,-1.21112 5.30454,1.64703 2.56505,2.00088 7.38408,4.87133 10.70897,6.37881 l 6.16477,2.80192 -15.84057,0.0363 -15.7211,0.0974 4.37125,-4.48535 z M 3.1950387,18.931323 c 0.0678,-10.6853729 -0.41228,-16.9707218 0.18893,-14.9493933 1.49888,5.0394324 6.2851,12.5741403 10.0439403,17.7096023 1.80564,2.466935 2.64483,4.485339 1.86487,4.485339 -0.77997,0 -3.84714,2.484189 -6.8159303,5.520417 l -5.3978,5.520419 z" id="path237" sodipodi:nodetypes="ssssssssssssssssssssssssssssccscsscsscssssscssssscsssssssssssssssscssscssscccccssssscs" style="fill:#ffffff;fill-opacity:1;stroke:#0d1117;stroke-width:2.04705;stroke-linecap:round;stroke-linejoin:round;stroke-dasharray:none;stroke-opacity:1;paint-order:stroke markers fill">
    </path>
   </g>
  </svg>
 </g>
 <!-- UR -->
 <g transform="translate(660,00) translate(50, 50) scale(-1,-1) translate(-50, -50) scale(0.4)">
  <svg height="200" id="svg2" inkscape:version="1.2.2 (732a01da63, 2022-12-09)" sodipodi:docname="E.svg" version="1.1" viewbox="0 0 200 200" width="200" xmlns="http://www.w3.org/2000/svg" xmlns:inkscape="http://www.inkscape.org/namespaces/inkscape" xmlns:sodipodi="http://sodipodi.sourceforge.net/DTD/sodipodi-0.dtd" xmlns:svg="http://www.w3.org/2000/svg">
   <defs id="defs6">
    <inkscape:path-effect add_other_stroke_width="inkscape_1.0_and_up" add_stroke_width="inkscape_1.0_and_up" both="false" crossing_points_vector="" effect="knot" id="path-effect280" interruption_width="3" inverse_width="false" is_visible="true" lpeversion="1" prop_to_stroke_width="true" switcher_size="15">
    </inkscape:path-effect>
   </defs>
   <sodipodi:namedview bordercolor="#000000" borderopacity="0.25" id="namedview4" inkscape:current-layer="g8" inkscape:cx="97.992916" inkscape:cy="157.02479" inkscape:deskcolor="#d1d1d1" inkscape:pagecheckerboard="0" inkscape:pageopacity="0.0" inkscape:showpageshadow="2" inkscape:window-height="1018" inkscape:window-maximized="0" inkscape:window-width="958" inkscape:window-x="953" inkscape:window-y="0" inkscape:zoom="2.1175" pagecolor="#ffffff" showgrid="false">
   </sodipodi:namedview>
   <g id="g8" inkscape:groupmode="layer" inkscape:label="Image">
    <path d="M 29.686839,195.88256 C 8.3467987,190.41216 -2.6261213,168.1575 6.6400487,149.14032 c 11.0614603,-22.7017 45.1224403,-18.15671 47.3520703,6.31853 1.54064,16.91199 -18.10402,27.31399 -29.52491,15.63365 -7.81151,-7.98896 -3.14925,-24.11541 5.58916,-19.33253 5.3964,2.95368 3.23374,10.35719 -3.02547,10.35719 -5.37512,0 -5.88269,0.67861 -3.67009,4.9068 6.83651,13.06433 27.01561,5.09379 26.9268,-10.6358 -0.1514,-26.81504 -40.6813503,-25.51316 -42.8617503,1.37678 -2.45247,30.24546 33.3985803,44.30905 54.6232403,21.4275 12.98883,-14.00277 12.24003,-42.60721 -1.11536,-42.60721 -6.82416,0 -12.83705,-2.286 -15.88172,-6.03793 -2.63693,-3.24949 5.87908,-4.34128 13.34445,-1.71083 7.62842,2.68793 7.76722,2.41621 2.4235,-4.74443 -6.69435,-8.97049 -20.98598,-18.57416 -23.83616,-16.01736 -8.03685,7.20955 -26.51711,10.39607 -31.3899803,5.4125 -2.75812,-2.82076 11.7268003,-9.1924 20.7632403,-9.13335 9.40879,0.0615 9.37943,0.30747 0.57017,-4.777107 -32.1064103,-18.531345 -31.6897403,-64.843277 0.64722,-71.93585 28.38551,-6.225888 45.98865,34.442931 19.40288,44.826773 -17.17824,6.709458 -33.50096,-12.118165 -21.88559,-25.244182 4.76926,-5.389536 13.46534,-2.111955 10.32395,3.891129 -1.73853,3.322258 -6.10504,3.459038 -7.9548,0.249184 -1.95097,-3.385472 -4.10199,0.06268 -4.08943,6.555496 0.0306,15.844089 21.80311,18.685375 28.73315,3.749648 10.63317,-22.916756 -18.87378,-40.106786 -37.00842,-21.560202 -15.48845034,15.840288 -6.5611403,44.073549 18.51469,58.554062 3.61792,2.089249 9.91793,5.768179 14.00001,8.175399 l 7.42198,4.37677 0.0107,-13.191821 c 0.009,-11.115824 0.51823,-14.240903 3.23583,-19.858165 l 3.22513,-6.666347 2.80835,4.536231 c 4.79541,7.745882 4.66396,20.767025 -0.31065,30.771972 l -4.06447,8.17446 5.49573,6.31663 c 9.31946,10.71152 12.49407,19.37915 12.51883,34.18019 l 0.0212,12.6824 3.02589,-2.90724 c 2.04278,-1.9627 5.37008,-3.10607 10.24106,-3.51918 6.74043,-0.57166 7.32181,-0.91352 8.835711,-5.19527 2.67798,-7.57403 15.01844,-16.89215 15.00218,-11.32793 -0.0101,3.45835 -5.53568,10.87514 -10.19803,13.68848 l -4.78081,2.88482 3.87261,2.40858 c 2.12994,1.3247 8.38576,7.1998 13.90182,13.05579 20.29599,21.5466 40.38549,20.19735 47.23164,-3.17221 6.66115,-22.73793 -25.05159,-38.74935 -34.96952,-17.65571 -5.65765,12.03277 9.24079,25.47711 18.61646,16.79948 4.27717,-3.9587 3.57295,-6.99178 -1.61968,-6.97598 -6.04537,0.0183 -6.78668,-7.98307 -0.80521,-8.69111 10.87793,-1.2876 10.19902,16.69532 -0.77008,20.39768 -17.7635,5.99566 -25.49592,-22.05938 -8.60526,-31.22201 22.44346,-12.17486 45.96002,15.95941 31.7265,37.95628 -10.28486,15.89452 -29.44112,16.35863 -46.36492,1.1233 -6.32376,-5.69285 -6.32945,-5.69471 -5.36184,-1.7519 1.05962,4.31769 -0.0936,11.87334 -1.81212,11.87334 -2.22504,0 -4.43067,-8.50913 -3.76686,-14.53221 0.78234,-7.09856 -2.73368,-11.38704 -11.861991,-14.46811 -15.44865,-5.21431 -27.35287,9.8595 -17.36922,21.99392 6.08799,7.39952 18.434981,4.37196 18.434981,-4.52035 0,-5.06003 -1.306041,-6.08582 -3.645901,-2.8636 -1.54123,2.12244 -2.42401,2.35232 -4.37177,1.13841 -6.16634,-3.84308 -1.49216,-10.99288 4.89951,-7.49444 9.742871,5.33267 4.494951,22.12649 -6.91435,22.12649 -8.92719,0 -15.94441,-7.39996 -15.94441,-16.81404 v -4.53017 l -6.00723,7.02317 c -9.48443,11.08842 -25.38796,16.35901 -38.90584,12.89378 z m 139.967371,-3.05809 c 2.40419,-2.46692 4.65966,-5.38124 5.01214,-6.47628 0.50349,-1.56417 1.64055,-1.21112 5.30454,1.64703 2.56505,2.00088 7.38408,4.87133 10.70897,6.37881 l 6.16477,2.80192 -15.84057,0.0363 -15.7211,0.0974 4.37125,-4.48535 z M 3.1950387,18.931323 c 0.0678,-10.6853729 -0.41228,-16.9707218 0.18893,-14.9493933 1.49888,5.0394324 6.2851,12.5741403 10.0439403,17.7096023 1.80564,2.466935 2.64483,4.485339 1.86487,4.485339 -0.77997,0 -3.84714,2.484189 -6.8159303,5.520417 l -5.3978,5.520419 z" id="path237" sodipodi:nodetypes="ssssssssssssssssssssssssssssccscsscsscssssscssssscsssssssssssssssscssscssscccccssssscs" style="fill:#ffffff;fill-opacity:1;stroke:#0d1117;stroke-width:2.04705;stroke-linecap:round;stroke-linejoin:round;stroke-dasharray:none;stroke-opacity:1;paint-order:stroke markers fill">
    </path>
   </g>
  </svg>
 </g>
 <!-- BL -->
 <g transform="translate(0,360) scale(0.4)">
  <svg height="200" id="svg2" inkscape:version="1.2.2 (732a01da63, 2022-12-09)" sodipodi:docname="E.svg" version="1.1" viewbox="0 0 200 200" width="200" xmlns="http://www.w3.org/2000/svg" xmlns:inkscape="http://www.inkscape.org/namespaces/inkscape" xmlns:sodipodi="http://sodipodi.sourceforge.net/DTD/sodipodi-0.dtd" xmlns:svg="http://www.w3.org/2000/svg">
   <defs id="defs6">
    <inkscape:path-effect add_other_stroke_width="inkscape_1.0_and_up" add_stroke_width="inkscape_1.0_and_up" both="false" crossing_points_vector="" effect="knot" id="path-effect280" interruption_width="3" inverse_width="false" is_visible="true" lpeversion="1" prop_to_stroke_width="true" switcher_size="15">
    </inkscape:path-effect>
   </defs>
   <sodipodi:namedview bordercolor="#000000" borderopacity="0.25" id="namedview4" inkscape:current-layer="g8" inkscape:cx="97.992916" inkscape:cy="157.02479" inkscape:deskcolor="#d1d1d1" inkscape:pagecheckerboard="0" inkscape:pageopacity="0.0" inkscape:showpageshadow="2" inkscape:window-height="1018" inkscape:window-maximized="0" inkscape:window-width="958" inkscape:window-x="953" inkscape:window-y="0" inkscape:zoom="2.1175" pagecolor="#ffffff" showgrid="false">
   </sodipodi:namedview>
   <g id="g8" inkscape:groupmode="layer" inkscape:label="Image">
    <path d="M 29.686839,195.88256 C 8.3467987,190.41216 -2.6261213,168.1575 6.6400487,149.14032 c 11.0614603,-22.7017 45.1224403,-18.15671 47.3520703,6.31853 1.54064,16.91199 -18.10402,27.31399 -29.52491,15.63365 -7.81151,-7.98896 -3.14925,-24.11541 5.58916,-19.33253 5.3964,2.95368 3.23374,10.35719 -3.02547,10.35719 -5.37512,0 -5.88269,0.67861 -3.67009,4.9068 6.83651,13.06433 27.01561,5.09379 26.9268,-10.6358 -0.1514,-26.81504 -40.6813503,-25.51316 -42.8617503,1.37678 -2.45247,30.24546 33.3985803,44.30905 54.6232403,21.4275 12.98883,-14.00277 12.24003,-42.60721 -1.11536,-42.60721 -6.82416,0 -12.83705,-2.286 -15.88172,-6.03793 -2.63693,-3.24949 5.87908,-4.34128 13.34445,-1.71083 7.62842,2.68793 7.76722,2.41621 2.4235,-4.74443 -6.69435,-8.97049 -20.98598,-18.57416 -23.83616,-16.01736 -8.03685,7.20955 -26.51711,10.39607 -31.3899803,5.4125 -2.75812,-2.82076 11.7268003,-9.1924 20.7632403,-9.13335 9.40879,0.0615 9.37943,0.30747 0.57017,-4.777107 -32.1064103,-18.531345 -31.6897403,-64.843277 0.64722,-71.93585 28.38551,-6.225888 45.98865,34.442931 19.40288,44.826773 -17.17824,6.709458 -33.50096,-12.118165 -21.88559,-25.244182 4.76926,-5.389536 13.46534,-2.111955 10.32395,3.891129 -1.73853,3.322258 -6.10504,3.459038 -7.9548,0.249184 -1.95097,-3.385472 -4.10199,0.06268 -4.08943,6.555496 0.0306,15.844089 21.80311,18.685375 28.73315,3.749648 10.63317,-22.916756 -18.87378,-40.106786 -37.00842,-21.560202 -15.48845034,15.840288 -6.5611403,44.073549 18.51469,58.554062 3.61792,2.089249 9.91793,5.768179 14.00001,8.175399 l 7.42198,4.37677 0.0107,-13.191821 c 0.009,-11.115824 0.51823,-14.240903 3.23583,-19.858165 l 3.22513,-6.666347 2.80835,4.536231 c 4.79541,7.745882 4.66396,20.767025 -0.31065,30.771972 l -4.06447,8.17446 5.49573,6.31663 c 9.31946,10.71152 12.49407,19.37915 12.51883,34.18019 l 0.0212,12.6824 3.02589,-2.90724 c 2.04278,-1.9627 5.37008,-3.10607 10.24106,-3.51918 6.74043,-0.57166 7.32181,-0.91352 8.835711,-5.19527 2.67798,-7.57403 15.01844,-16.89215 15.00218,-11.32793 -0.0101,3.45835 -5.53568,10.87514 -10.19803,13.68848 l -4.78081,2.88482 3.87261,2.40858 c 2.12994,1.3247 8.38576,7.1998 13.90182,13.05579 20.29599,21.5466 40.38549,20.19735 47.23164,-3.17221 6.66115,-22.73793 -25.05159,-38.74935 -34.96952,-17.65571 -5.65765,12.03277 9.24079,25.47711 18.61646,16.79948 4.27717,-3.9587 3.57295,-6.99178 -1.61968,-6.97598 -6.04537,0.0183 -6.78668,-7.98307 -0.80521,-8.69111 10.87793,-1.2876 10.19902,16.69532 -0.77008,20.39768 -17.7635,5.99566 -25.49592,-22.05938 -8.60526,-31.22201 22.44346,-12.17486 45.96002,15.95941 31.7265,37.95628 -10.28486,15.89452 -29.44112,16.35863 -46.36492,1.1233 -6.32376,-5.69285 -6.32945,-5.69471 -5.36184,-1.7519 1.05962,4.31769 -0.0936,11.87334 -1.81212,11.87334 -2.22504,0 -4.43067,-8.50913 -3.76686,-14.53221 0.78234,-7.09856 -2.73368,-11.38704 -11.861991,-14.46811 -15.44865,-5.21431 -27.35287,9.8595 -17.36922,21.99392 6.08799,7.39952 18.434981,4.37196 18.434981,-4.52035 0,-5.06003 -1.306041,-6.08582 -3.645901,-2.8636 -1.54123,2.12244 -2.42401,2.35232 -4.37177,1.13841 -6.16634,-3.84308 -1.49216,-10.99288 4.89951,-7.49444 9.742871,5.33267 4.494951,22.12649 -6.91435,22.12649 -8.92719,0 -15.94441,-7.39996 -15.94441,-16.81404 v -4.53017 l -6.00723,7.02317 c -9.48443,11.08842 -25.38796,16.35901 -38.90584,12.89378 z m 139.967371,-3.05809 c 2.40419,-2.46692 4.65966,-5.38124 5.01214,-6.47628 0.50349,-1.56417 1.64055,-1.21112 5.30454,1.64703 2.56505,2.00088 7.38408,4.87133 10.70897,6.37881 l 6.16477,2.80192 -15.84057,0.0363 -15.7211,0.0974 4.37125,-4.48535 z M 3.1950387,18.931323 c 0.0678,-10.6853729 -0.41228,-16.9707218 0.18893,-14.9493933 1.49888,5.0394324 6.2851,12.5741403 10.0439403,17.7096023 1.80564,2.466935 2.64483,4.485339 1.86487,4.485339 -0.77997,0 -3.84714,2.484189 -6.8159303,5.520417 l -5.3978,5.520419 z" id="path237" sodipodi:nodetypes="ssssssssssssssssssssssssssssccscsscsscssssscssssscsssssssssssssssscssscssscccccssssscs" style="fill:#ffffff;fill-opacity:1;stroke:#0d1117;stroke-width:2.04705;stroke-linecap:round;stroke-linejoin:round;stroke-dasharray:none;stroke-opacity:1;paint-order:stroke markers fill">
    </path>
   </g>
  </svg>
 </g>
 <!-- BR -->
 <g transform="translate(660,360) translate(50, 50) scale(-1,1) translate(-50, -50) scale(0.4)">
  <svg height="200" id="svg2" inkscape:version="1.2.2 (732a01da63, 2022-12-09)" sodipodi:docname="E.svg" version="1.1" viewbox="0 0 200 200" width="200" xmlns="http://www.w3.org/2000/svg" xmlns:inkscape="http://www.inkscape.org/namespaces/inkscape" xmlns:sodipodi="http://sodipodi.sourceforge.net/DTD/sodipodi-0.dtd" xmlns:svg="http://www.w3.org/2000/svg">
   <defs id="defs6">
    <inkscape:path-effect add_other_stroke_width="inkscape_1.0_and_up" add_stroke_width="inkscape_1.0_and_up" both="false" crossing_points_vector="" effect="knot" id="path-effect280" interruption_width="3" inverse_width="false" is_visible="true" lpeversion="1" prop_to_stroke_width="true" switcher_size="15">
    </inkscape:path-effect>
   </defs>
   <sodipodi:namedview bordercolor="#000000" borderopacity="0.25" id="namedview4" inkscape:current-layer="g8" inkscape:cx="97.992916" inkscape:cy="157.02479" inkscape:deskcolor="#d1d1d1" inkscape:pagecheckerboard="0" inkscape:pageopacity="0.0" inkscape:showpageshadow="2" inkscape:window-height="1018" inkscape:window-maximized="0" inkscape:window-width="958" inkscape:window-x="953" inkscape:window-y="0" inkscape:zoom="2.1175" pagecolor="#ffffff" showgrid="false">
   </sodipodi:namedview>
   <g id="g8" inkscape:groupmode="layer" inkscape:label="Image">
    <path d="M 29.686839,195.88256 C 8.3467987,190.41216 -2.6261213,168.1575 6.6400487,149.14032 c 11.0614603,-22.7017 45.1224403,-18.15671 47.3520703,6.31853 1.54064,16.91199 -18.10402,27.31399 -29.52491,15.63365 -7.81151,-7.98896 -3.14925,-24.11541 5.58916,-19.33253 5.3964,2.95368 3.23374,10.35719 -3.02547,10.35719 -5.37512,0 -5.88269,0.67861 -3.67009,4.9068 6.83651,13.06433 27.01561,5.09379 26.9268,-10.6358 -0.1514,-26.81504 -40.6813503,-25.51316 -42.8617503,1.37678 -2.45247,30.24546 33.3985803,44.30905 54.6232403,21.4275 12.98883,-14.00277 12.24003,-42.60721 -1.11536,-42.60721 -6.82416,0 -12.83705,-2.286 -15.88172,-6.03793 -2.63693,-3.24949 5.87908,-4.34128 13.34445,-1.71083 7.62842,2.68793 7.76722,2.41621 2.4235,-4.74443 -6.69435,-8.97049 -20.98598,-18.57416 -23.83616,-16.01736 -8.03685,7.20955 -26.51711,10.39607 -31.3899803,5.4125 -2.75812,-2.82076 11.7268003,-9.1924 20.7632403,-9.13335 9.40879,0.0615 9.37943,0.30747 0.57017,-4.777107 -32.1064103,-18.531345 -31.6897403,-64.843277 0.64722,-71.93585 28.38551,-6.225888 45.98865,34.442931 19.40288,44.826773 -17.17824,6.709458 -33.50096,-12.118165 -21.88559,-25.244182 4.76926,-5.389536 13.46534,-2.111955 10.32395,3.891129 -1.73853,3.322258 -6.10504,3.459038 -7.9548,0.249184 -1.95097,-3.385472 -4.10199,0.06268 -4.08943,6.555496 0.0306,15.844089 21.80311,18.685375 28.73315,3.749648 10.63317,-22.916756 -18.87378,-40.106786 -37.00842,-21.560202 -15.48845034,15.840288 -6.5611403,44.073549 18.51469,58.554062 3.61792,2.089249 9.91793,5.768179 14.00001,8.175399 l 7.42198,4.37677 0.0107,-13.191821 c 0.009,-11.115824 0.51823,-14.240903 3.23583,-19.858165 l 3.22513,-6.666347 2.80835,4.536231 c 4.79541,7.745882 4.66396,20.767025 -0.31065,30.771972 l -4.06447,8.17446 5.49573,6.31663 c 9.31946,10.71152 12.49407,19.37915 12.51883,34.18019 l 0.0212,12.6824 3.02589,-2.90724 c 2.04278,-1.9627 5.37008,-3.10607 10.24106,-3.51918 6.74043,-0.57166 7.32181,-0.91352 8.835711,-5.19527 2.67798,-7.57403 15.01844,-16.89215 15.00218,-11.32793 -0.0101,3.45835 -5.53568,10.87514 -10.19803,13.68848 l -4.78081,2.88482 3.87261,2.40858 c 2.12994,1.3247 8.38576,7.1998 13.90182,13.05579 20.29599,21.5466 40.38549,20.19735 47.23164,-3.17221 6.66115,-22.73793 -25.05159,-38.74935 -34.96952,-17.65571 -5.65765,12.03277 9.24079,25.47711 18.61646,16.79948 4.27717,-3.9587 3.57295,-6.99178 -1.61968,-6.97598 -6.04537,0.0183 -6.78668,-7.98307 -0.80521,-8.69111 10.87793,-1.2876 10.19902,16.69532 -0.77008,20.39768 -17.7635,5.99566 -25.49592,-22.05938 -8.60526,-31.22201 22.44346,-12.17486 45.96002,15.95941 31.7265,37.95628 -10.28486,15.89452 -29.44112,16.35863 -46.36492,1.1233 -6.32376,-5.69285 -6.32945,-5.69471 -5.36184,-1.7519 1.05962,4.31769 -0.0936,11.87334 -1.81212,11.87334 -2.22504,0 -4.43067,-8.50913 -3.76686,-14.53221 0.78234,-7.09856 -2.73368,-11.38704 -11.861991,-14.46811 -15.44865,-5.21431 -27.35287,9.8595 -17.36922,21.99392 6.08799,7.39952 18.434981,4.37196 18.434981,-4.52035 0,-5.06003 -1.306041,-6.08582 -3.645901,-2.8636 -1.54123,2.12244 -2.42401,2.35232 -4.37177,1.13841 -6.16634,-3.84308 -1.49216,-10.99288 4.89951,-7.49444 9.742871,5.33267 4.494951,22.12649 -6.91435,22.12649 -8.92719,0 -15.94441,-7.39996 -15.94441,-16.81404 v -4.53017 l -6.00723,7.02317 c -9.48443,11.08842 -25.38796,16.35901 -38.90584,12.89378 z m 139.967371,-3.05809 c 2.40419,-2.46692 4.65966,-5.38124 5.01214,-6.47628 0.50349,-1.56417 1.64055,-1.21112 5.30454,1.64703 2.56505,2.00088 7.38408,4.87133 10.70897,6.37881 l 6.16477,2.80192 -15.84057,0.0363 -15.7211,0.0974 4.37125,-4.48535 z M 3.1950387,18.931323 c 0.0678,-10.6853729 -0.41228,-16.9707218 0.18893,-14.9493933 1.49888,5.0394324 6.2851,12.5741403 10.0439403,17.7096023 1.80564,2.466935 2.64483,4.485339 1.86487,4.485339 -0.77997,0 -3.84714,2.484189 -6.8159303,5.520417 l -5.3978,5.520419 z" id="path237" sodipodi:nodetypes="ssssssssssssssssssssssssssssccscsscsscssssscssssscsssssssssssssssscssscssscccccssssscs" style="fill:#ffffff;fill-opacity:1;stroke:#0d1117;stroke-width:2.04705;stroke-linecap:round;stroke-linejoin:round;stroke-dasharray:none;stroke-opacity:1;paint-order:stroke markers fill">
    </path>
   </g>
  </svg>
 </g>
 <g transform="translate(20,40)">
  <svg height="200" viewbox="0 0 700 200" width="700" xmlns="http://www.w3.org/2000/svg">
   <style>
    * {
          font-family: 'Segoe UI', Ubuntu, "Helvetica Neue", Sans-Serif
        }
   </style>
   <rect fill="#00000000" height="99%" rx="5" ry="5" stroke="#000000" stroke-opacity="0" stroke-width="1" width="99.71428571428571%" x="1" y="1">
   </rect>
   <text style="font-size: 22px; fill: #408beb;" x="30" y="40">
    PYBrulin (Pierre-Yves BRULIN)
   </text>
   <g transform="translate(0,40)">
    <g transform="translate(30,30)">
     <g fill="#0579C3" height="14" transform="translate(0,0)" width="14">
      <path d="M8 0C3.58 0 0 3.58 0 8c0 3.54 2.29 6.53 5.47 7.59.4.07.55-.17.55-.38 0-.19-.01-.82-.01-1.49-2.01.37-2.53-.49-2.69-.94-.09-.23-.48-.94-.82-1.13-.28-.15-.68-.52-.01-.53.63-.01 1.08.58 1.23.82.72 1.21 1.87.87 2.33.66.07-.52.28-.87.51-1.07-1.78-.2-3.64-.89-3.64-3.95 0-.87.31-1.59.82-2.15-.08-.2-.36-1.02.08-2.12 0 0 .67-.21 2.2.82.64-.18 1.32-.27 2-.27.68 0 1.36.09 2 .27 1.53-1.04 2.2-.82 2.2-.82.44 1.1.16 1.92.08 2.12.51.56.82 1.27.82 2.15 0 3.07-1.87 3.75-3.65 3.95.29.25.54.73.54 1.48 0 1.07-.01 1.93-.01 2.2 0 .21.15.46.55.38A8.013 8.013 0 0016 8c0-4.42-3.58-8-8-8z" fill-rule="evenodd">
      </path>
     </g>
     <g fill="#0579C3" height="14" transform="translate(0,28)" width="14">
      <path d="M2 2.5A2.5 2.5 0 014.5 0h8.75a.75.75 0 01.75.75v12.5a.75.75 0 01-.75.75h-2.5a.75.75 0 110-1.5h1.75v-2h-8a1 1 0 00-.714 1.7.75.75 0 01-1.072 1.05A2.495 2.495 0 012 11.5v-9zm10.5-1V9h-8c-.356 0-.694.074-1 .208V2.5a1 1 0 011-1h8zM5 12.25v3.25a.25.25 0 00.4.2l1.45-1.087a.25.25 0 01.3 0L8.6 15.7a.25.25 0 00.4-.2v-3.25a.25.25 0 00-.25-.25h-3.5a.25.25 0 00-.25.25z" fill-rule="evenodd">
      </path>
     </g>
     <g fill="#0579C3" height="14" transform="translate(0,56)" width="14">
      <path d="M1.5 8a6.5 6.5 0 1113 0 6.5 6.5 0 01-13 0zM8 0a8 8 0 100 16A8 8 0 008 0zm.5 4.75a.75.75 0 00-1.5 0v3.5a.75.75 0 00.471.696l2.5 1a.75.75 0 00.557-1.392L8.5 7.742V4.75z" fill-rule="evenodd">
      </path>
     </g>
     <g fill="#0579C3" height="14" transform="translate(0,84)" width="14">
      <path d="M1.5 14.25c0 .138.112.25.25.25H4v-1.25a.75.75 0 01.75-.75h2.5a.75.75 0 01.75.75v1.25h2.25a.25.25 0 00.25-.25V1.75a.25.25 0 00-.25-.25h-8.5a.25.25 0 00-.25.25v12.5zM1.75 16A1.75 1.75 0 010 14.25V1.75C0 .784.784 0 1.75 0h8.5C11.216 0 12 .784 12 1.75v12.5c0 .085-.006.168-.018.25h2.268a.25.25 0 00.25-.25V8.285a.25.25 0 00-.111-.208l-1.055-.703a.75.75 0 11.832-1.248l1.055.703c.487.325.779.871.779 1.456v5.965A1.75 1.75 0 0114.25 16h-3.5a.75.75 0 01-.197-.026c-.099.017-.2.026-.303.026h-3a.75.75 0 01-.75-.75V14h-1v1.25a.75.75 0 01-.75.75h-3zM3 3.75A.75.75 0 013.75 3h.5a.75.75 0 010 1.5h-.5A.75.75 0 013 3.75zM3.75 6a.75.75 0 000 1.5h.5a.75.75 0 000-1.5h-.5zM3 9.75A.75.75 0 013.75 9h.5a.75.75 0 010 1.5h-.5A.75.75 0 013 9.75zM7.75 9a.75.75 0 000 1.5h.5a.75.75 0 000-1.5h-.5zM7 6.75A.75.75 0 017.75 6h.5a.75.75 0 010 1.5h-.5A.75.75 0 017 6.75zM7.75 3a.75.75 0 000 1.5h.5a.75.75 0 000-1.5h-.5z" fill-rule="evenodd">
      </path>
     </g>
     <text style="fill: #417E87; font-size: 14px;" x="21" y="14">
      4.44k Contributions on GitHub
     </text>
     <text style="fill: #417E87; font-size: 14px;" x="21" y="42">
      7 Public Repos
     </text>
     <text style="fill: #417E87; font-size: 14px;" x="21" y="70">
      Joined GitHub 5 years ago
     </text>
     <text style="fill: #417E87; font-size: 14px;" x="21" y="98">
      Hexadrone
     </text>
    </g>
    <g color="#408beb" transform="translate(295,10)">
     <path d="M0,75.16666666666667C10.728597449908925,79.75,21.45719489981785,84.33333333333333,32.185792349726775,84.33333333333333C42.56830601092896,84.33333333333333,52.950819672131146,0.3666666666666629,63.33333333333333,0.3666666666666629C74.06193078324226,0.3666666666666629,84.79052823315118,82.5,95.51912568306011,82.5C105.90163934426229,82.5,116.28415300546447,71.5,126.66666666666666,71.5C137.3952641165756,71.5,148.12386156648452,95.33333333333334,158.85245901639345,95.33333333333334C169.58105646630239,95.33333333333334,180.3096539162113,85.83092289010322,191.03825136612022,80.66666666666667C201.4207650273224,75.66899935366355,211.80327868852459,72.68984076620248,222.18579234972677,64.9C232.9143897996357,56.85049787492411,243.6429872495446,34.14888888888889,254.37158469945354,32.63333333333333C264.75409836065575,31.16666666666666,275.1366120218579,30.433333333333326,285.5191256830601,30.433333333333326C296.24772313296904,30.433333333333326,306.976320582878,60.50000000000001,317.7049180327869,60.50000000000001C328.43351548269584,60.50000000000001,339.1621129326047,46.93333333333333,349.89071038251365,46.93333333333333C359.9271402550091,46.93333333333333,369.96357012750457,51.699999999999996,380,56.46666666666666L380,110C369.96357012750457,110,359.9271402550091,110,349.89071038251365,110C339.1621129326047,110,328.43351548269584,110,317.7049180327869,110C306.976320582878,110,296.24772313296904,110,285.5191256830601,110C275.1366120218579,110,264.75409836065575,110,254.37158469945354,110C243.6429872495446,110,232.9143897996357,110,222.18579234972677,110C211.80327868852459,110,201.4207650273224,110,191.03825136612022,110C180.3096539162113,110,169.58105646630239,110,158.85245901639345,110C148.12386156648452,110,137.3952641165756,110,126.66666666666666,110C116.28415300546447,110,105.90163934426229,110,95.51912568306011,110C84.79052823315118,110,74.06193078324226,110,63.33333333333333,110C52.950819672131146,110,42.56830601092896,110,32.185792349726775,110C21.45719489981785,110,10.728597449908925,110,0,110Z" fill="#408beb" opacity="1" stroke="#408beb" transform="translate(-30,0)">
     </path>
     <g color="#417E87" fill="none" font-family="sans-serif" font-size="10" text-anchor="middle" transform="translate(-30,110)">
      <path class="domain" d="M0.5,6V0.5H380.5V6" stroke="currentColor">
      </path>
      <g class="tick" opacity="1" transform="translate(0.5,0)">
       <line stroke="currentColor" y2="6">
       </line>
       <text dy="0.71em" fill="currentColor" y="9">
        23/03
       </text>
      </g>
      <g class="tick" opacity="1" transform="translate(63.83333333333333,0)">
       <line stroke="currentColor" y2="6">
       </line>
       <text dy="0.71em" fill="currentColor" y="9">
        23/05
       </text>
      </g>
      <g class="tick" opacity="1" transform="translate(127.16666666666666,0)">
       <line stroke="currentColor" y2="6">
       </line>
       <text dy="0.71em" fill="currentColor" y="9">
        23/07
       </text>
      </g>
      <g class="tick" opacity="1" transform="translate(191.53825136612022,0)">
       <line stroke="currentColor" y2="6">
       </line>
       <text dy="0.71em" fill="currentColor" y="9">
        23/09
       </text>
      </g>
      <g class="tick" opacity="1" transform="translate(254.87158469945354,0)">
       <line stroke="currentColor" y2="6">
       </line>
       <text dy="0.71em" fill="currentColor" y="9">
        23/11
       </text>
      </g>
      <g class="tick" opacity="1" transform="translate(318.2049180327869,0)">
       <line stroke="currentColor" y2="6">
       </line>
       <text dy="0.71em" fill="currentColor" y="9">
        24/01
       </text>
      </g>
      <g class="tick" opacity="1" transform="translate(380.5,0)">
       <line stroke="currentColor" y2="6">
       </line>
       <text dy="0.71em" fill="currentColor" y="9">
        24/03
       </text>
      </g>
     </g>
     <g color="#417E87" fill="none" font-family="sans-serif" font-size="10" text-anchor="start" transform="translate(350,0)">
      <path class="domain" d="M6,110.5H0.5V0.5H6" stroke="currentColor">
      </path>
      <g class="tick" opacity="1" transform="translate(0,110.5)">
       <line stroke="currentColor" x2="6">
       </line>
       <text dy="0.32em" fill="currentColor" x="9">
        0
       </text>
      </g>
      <g class="tick" opacity="1" transform="translate(0,92.16666666666667)">
       <line stroke="currentColor" x2="6">
       </line>
       <text dy="0.32em" fill="currentColor" x="9">
        50
       </text>
      </g>
      <g class="tick" opacity="1" transform="translate(0,73.83333333333334)">
       <line stroke="currentColor" x2="6">
       </line>
       <text dy="0.32em" fill="currentColor" x="9">
        100
       </text>
      </g>
      <g class="tick" opacity="1" transform="translate(0,55.5)">
       <line stroke="currentColor" x2="6">
       </line>
       <text dy="0.32em" fill="currentColor" x="9">
        150
       </text>
      </g>
      <g class="tick" opacity="1" transform="translate(0,37.16666666666667)">
       <line stroke="currentColor" x2="6">
       </line>
       <text dy="0.32em" fill="currentColor" x="9">
        200
       </text>
      </g>
      <g class="tick" opacity="1" transform="translate(0,18.83333333333333)">
       <line stroke="currentColor" x2="6">
       </line>
       <text dy="0.32em" fill="currentColor" x="9">
        250
       </text>
      </g>
      <g class="tick" opacity="1" transform="translate(0,0.5)">
       <line stroke="currentColor" x2="6">
       </line>
       <text dy="0.32em" fill="currentColor" x="9">
        300
       </text>
      </g>
     </g>
     <g>
      <text style="fill: #417E87; font-size: 10px;" x="230" y="-15">
       contributions in the last year
      </text>
     </g>
    </g>
   </g>
  </svg>
  <g transform="translate(0,180)">
   <svg height="200" viewbox="0 0 340 200" width="340" xmlns="http://www.w3.org/2000/svg">
    <style>
     * {
          font-family: 'Segoe UI', Ubuntu, "Helvetica Neue", Sans-Serif
        }
    </style>
    <rect fill="#00000000" height="99%" rx="5" ry="5" stroke="#000000" stroke-opacity="0" stroke-width="1" width="99.41176470588235%" x="1" y="1">
    </rect>
    <text style="font-size: 22px; fill: #408beb;" x="30" y="40">
     Top Languages by Repo
    </text>
    <g transform="translate(0,40)">
     <g transform="translate(40,0)">
      <rect fill="#3572A5" height="14" stroke="#00000000" style="stroke-width: 1px;" width="14" y="18">
      </rect>
      <rect fill="#f34b7d" height="14" stroke="#00000000" style="stroke-width: 1px;" width="14" y="43.2">
      </rect>
      <rect fill="#3D6117" height="14" stroke="#00000000" style="stroke-width: 1px;" width="14" y="68.4">
      </rect>
      <rect fill="#da291c" height="14" stroke="#00000000" style="stroke-width: 1px;" width="14" y="93.60000000000002">
      </rect>
      <rect fill="#178600" height="14" stroke="#00000000" style="stroke-width: 1px;" width="14" y="118.80000000000001">
      </rect>
      <text style="fill: #417E87; font-size: 14px;" x="16.8" y="30">
       Python
      </text>
      <text style="fill: #417E87; font-size: 14px;" x="16.8" y="55.2">
       C++
      </text>
      <text style="fill: #417E87; font-size: 14px;" x="16.8" y="80.4">
       TeX
      </text>
      <text style="fill: #417E87; font-size: 14px;" x="16.8" y="105.60000000000002">
       PostScript
      </text>
      <text style="fill: #417E87; font-size: 14px;" x="16.8" y="130.8">
       C#
      </text>
     </g>
     <g transform="translate( 230, 80 )">
      <g class="arc">
       <path d="M3.67394039744206e-15,-60A60,60,0,1,1,-54.16786979794461,25.803912136591222L-31.597924048801023,15.052282079678212A35,35,0,1,0,2.1431318985078682e-15,-35Z" stroke="#00000000" style="fill: #3572A5; stroke-width: 2px;">
       </path>
      </g>
      <g class="arc">
       <path d="M-54.16786979794461,25.803912136591222A60,60,0,0,1,-55.601376445910006,-22.549654926854284L-32.43413626011417,-13.153965373998332A35,35,0,0,0,-31.597924048801023,15.052282079678212Z" stroke="#00000000" style="fill: #f34b7d; stroke-width: 2px;">
       </path>
      </g>
      <g class="arc">
       <path d="M-55.601376445910006,-22.549654926854284A60,60,0,0,1,-39.16932709143132,-45.45067452969719L-22.848774136668272,-26.512893475656693A35,35,0,0,0,-32.43413626011417,-13.153965373998332Z" stroke="#00000000" style="fill: #3D6117; stroke-width: 2px;">
       </path>
      </g>
      <g class="arc">
       <path d="M-39.16932709143132,-45.45067452969719A60,60,0,0,1,-20.892098126063946,-56.24517966804725L-12.187057240203968,-32.80968813969423A35,35,0,0,0,-22.848774136668272,-26.512893475656693Z" stroke="#00000000" style="fill: #da291c; stroke-width: 2px;">
       </path>
      </g>
      <g class="arc">
       <path d="M-20.892098126063946,-56.24517966804725A60,60,0,0,1,-1.1021821192326178e-14,-60L-6.429395695523604e-15,-35A35,35,0,0,0,-12.187057240203968,-32.80968813969423Z" stroke="#00000000" style="fill: #178600; stroke-width: 2px;">
       </path>
      </g>
     </g>
    </g>
   </svg>
  </g>
  <g transform="translate(400,180)">
   <svg height="200" viewbox="0 0 340 200" width="340" xmlns="http://www.w3.org/2000/svg">
    <style>
     * {
          font-family: 'Segoe UI', Ubuntu, "Helvetica Neue", Sans-Serif
        }
    </style>
    <rect fill="#00000000" height="99%" rx="5" ry="5" stroke="#000000" stroke-opacity="0" stroke-width="1" width="99.41176470588235%" x="1" y="1">
    </rect>
    <text style="font-size: 22px; fill: #408beb;" x="30" y="40">
     Top Languages by Commit
    </text>
    <g transform="translate(0,40)">
     <g transform="translate(40,0)">
      <rect fill="#3572A5" height="14" stroke="#00000000" style="stroke-width: 1px;" width="14" y="18">
      </rect>
      <rect fill="#302B6D" height="14" stroke="#00000000" style="stroke-width: 1px;" width="14" y="43.2">
      </rect>
      <rect fill="#da291c" height="14" stroke="#00000000" style="stroke-width: 1px;" width="14" y="68.4">
      </rect>
      <rect fill="#f34b7d" height="14" stroke="#00000000" style="stroke-width: 1px;" width="14" y="93.60000000000002">
      </rect>
      <rect fill="#41b883" height="14" stroke="#00000000" style="stroke-width: 1px;" width="14" y="118.80000000000001">
      </rect>
      <text style="fill: #417E87; font-size: 14px;" x="16.8" y="30">
       Python
      </text>
      <text style="fill: #417E87; font-size: 14px;" x="16.8" y="55.2">
       Puppet
      </text>
      <text style="fill: #417E87; font-size: 14px;" x="16.8" y="80.4">
       PostScript
      </text>
      <text style="fill: #417E87; font-size: 14px;" x="16.8" y="105.60000000000002">
       C++
      </text>
      <text style="fill: #417E87; font-size: 14px;" x="16.8" y="130.8">
       Vue
      </text>
     </g>
     <g transform="translate( 230, 80 )">
      <g class="arc">
       <path d="M3.67394039744206e-15,-60A60,60,0,1,1,-59.90429454403105,-3.387550026489808L-34.944171817351446,-1.9760708487857215A35,35,0,1,0,2.1431318985078682e-15,-35Z" stroke="#00000000" style="fill: #3572A5; stroke-width: 2px;">
       </path>
      </g>
      <g class="arc">
       <path d="M-59.90429454403105,-3.387550026489808A60,60,0,0,1,-46.245952017764836,-38.22710977788659L-26.976805343696157,-22.299147370433843A35,35,0,0,0,-34.944171817351446,-1.9760708487857215Z" stroke="#00000000" style="fill: #302B6D; stroke-width: 2px;">
       </path>
      </g>
      <g class="arc">
       <path d="M-46.245952017764836,-38.22710977788659A60,60,0,0,1,-31.00699023629472,-51.366979242372466L-18.08741097117192,-29.964071224717273A35,35,0,0,0,-26.976805343696157,-22.299147370433843Z" stroke="#00000000" style="fill: #da291c; stroke-width: 2px;">
       </path>
      </g>
      <g class="arc">
       <path d="M-31.00699023629472,-51.366979242372466A60,60,0,0,1,-14.136780490531471,-58.31081749866425L-8.246455286143359,-34.01464354088748A35,35,0,0,0,-18.08741097117192,-29.964071224717273Z" stroke="#00000000" style="fill: #f34b7d; stroke-width: 2px;">
       </path>
      </g>
      <g class="arc">
       <path d="M-14.136780490531471,-58.31081749866425A60,60,0,0,1,-1.1021821192326178e-14,-60L-6.429395695523604e-15,-35A35,35,0,0,0,-8.246455286143359,-34.01464354088748Z" stroke="#00000000" style="fill: #41b883; stroke-width: 2px;">
       </path>
      </g>
     </g>
    </g>
   </svg>
  </g>
  <!-- <g transform="translate(0,360)">
            <image
                href="profile-summary-card-output/transparent/3-stats.svg" />
        </g>
        <g transform="translate(400,360)">
            <image
                href="profile-summary-card-output/transparent/4-productive-time.svg" />
        </g> -->
 </g>
</svg>
