<svg height="412" viewbox="0 0 720 400" width="730" xmlns="http://www.w3.org/2000/svg">
 <style>
  :root {
        --custom-color: #eeeeee80; /* Default color for light mode */
    }
    @media (prefers-color-scheme: dark) {
        :root {
            --custom-color: #22222280; /* Custom color for dark mode */
        }
    } 

    * {
        path {
            fill: black;
            stroke: black;
        }
        line {
            stroke: black;
        }
        text {
            fill: black;
        }
        tick {
            fill: black;
        }
        @media (prefers-color-scheme: dark) {
            path { 
                fill: white; 
                stroke: white;
            }
            line {
                stroke: white;
            }
            text {
                fill: white;
            }
            tick {
                fill: white;
            }
        }
    }
 </style>
 <rect fill="var(--custom-color)" height="99%" rx="20" ry="20" stroke="" stroke-opacity="0" stroke-width="1" width="99%" x="1" y="1">
 </rect>
 <!-- UL -->
 <g transform="translate(5,5) translate(50, 30) scale(1,-1) translate(-50, -50) scale(0.4)">
  <svg height="200" id="svg2" inkscape:version="1.2.2 (732a01da63, 2022-12-09)" sodipodi:docname="E.svg" version="1.1" viewbox="0 0 200 200" width="200" xmlns="http://www.w3.org/2000/svg" xmlns:inkscape="http://www.inkscape.org/namespaces/inkscape" xmlns:sodipodi="http://sodipodi.sourceforge.net/DTD/sodipodi-0.dtd" xmlns:svg="http://www.w3.org/2000/svg">
   <defs id="defs6">
    <inkscape:path-effect add_other_stroke_width="inkscape_1.0_and_up" add_stroke_width="inkscape_1.0_and_up" both="false" crossing_points_vector="" effect="knot" id="path-effect280" interruption_width="3" inverse_width="false" is_visible="true" lpeversion="1" prop_to_stroke_width="true" switcher_size="15">
    </inkscape:path-effect>
   </defs>
   <sodipodi:namedview bordercolor="" borderopacity="0.25" id="namedview4" inkscape:current-layer="g8" inkscape:cx="97.520661" inkscape:cy="157.02479" inkscape:deskcolor="#d1d1d1" inkscape:pagecheckerboard="0" inkscape:pageopacity="0.0" inkscape:showpageshadow="2" inkscape:window-height="1018" inkscape:window-maximized="0" inkscape:window-width="958" inkscape:window-x="946" inkscape:window-y="0" inkscape:zoom="2.1175" pagecolor="" showgrid="false">
   </sodipodi:namedview>
   <g id="g8" inkscape:groupmode="layer" inkscape:label="Image">
    <path d="M 29.686839,195.88256 C 8.3467987,190.41216 -2.6261213,168.1575 6.6400487,149.14032 c 11.0614603,-22.7017 45.1224403,-18.15671 47.3520703,6.31853 1.54064,16.91199 -18.10402,27.31399 -29.52491,15.63365 -7.81151,-7.98896 -3.14925,-24.11541 5.58916,-19.33253 5.3964,2.95368 3.23374,10.35719 -3.02547,10.35719 -5.37512,0 -5.88269,0.67861 -3.67009,4.9068 6.83651,13.06433 27.01561,5.09379 26.9268,-10.6358 -0.1514,-26.81504 -40.6813503,-25.51316 -42.8617503,1.37678 -2.45247,30.24546 33.3985803,44.30905 54.6232403,21.4275 12.98883,-14.00277 12.24003,-42.60721 -1.11536,-42.60721 -6.82416,0 -12.83705,-2.286 -15.88172,-6.03793 -2.63693,-3.24949 5.87908,-4.34128 13.34445,-1.71083 7.62842,2.68793 7.76722,2.41621 2.4235,-4.74443 -6.69435,-8.97049 -20.98598,-18.57416 -23.83616,-16.01736 -8.03685,7.20955 -26.51711,10.39607 -31.3899803,5.4125 -2.75812,-2.82076 11.7268003,-9.1924 20.7632403,-9.13335 9.40879,0.0615 9.37943,0.30747 0.57017,-4.777107 -32.1064103,-18.531345 -31.6897403,-64.843277 0.64722,-71.93585 28.38551,-6.225888 45.98865,34.442931 19.40288,44.826773 -17.17824,6.709458 -33.50096,-12.118165 -21.88559,-25.244182 4.76926,-5.389536 13.46534,-2.111955 10.32395,3.891129 -1.73853,3.322258 -6.10504,3.459038 -7.9548,0.249184 -1.95097,-3.385472 -4.10199,0.06268 -4.08943,6.555496 0.0306,15.844089 21.80311,18.685375 28.73315,3.749648 10.63317,-22.916756 -18.87378,-40.106786 -37.00842,-21.560202 -15.48845034,15.840288 -6.5611403,44.073549 18.51469,58.554062 3.61792,2.089249 9.91793,5.768179 14.00001,8.175399 l 7.42198,4.37677 0.0107,-13.191821 c 0.009,-11.115824 0.51823,-14.240903 3.23583,-19.858165 l 3.22513,-6.666347 2.80835,4.536231 c 4.79541,7.745882 4.66396,20.767025 -0.31065,30.771972 l -4.06447,8.17446 5.49573,6.31663 c 9.31946,10.71152 12.49407,19.37915 12.51883,34.18019 l 0.0212,12.6824 3.02589,-2.90724 c 2.04278,-1.9627 5.37008,-3.10607 10.24106,-3.51918 6.74043,-0.57166 7.32181,-0.91352 8.835711,-5.19527 2.67798,-7.57403 15.01844,-16.89215 15.00218,-11.32793 -0.0101,3.45835 -5.53568,10.87514 -10.19803,13.68848 l -4.78081,2.88482 3.87261,2.40858 c 2.12994,1.3247 8.38576,7.1998 13.90182,13.05579 20.29599,21.5466 40.38549,20.19735 47.23164,-3.17221 6.66115,-22.73793 -25.05159,-38.74935 -34.96952,-17.65571 -5.65765,12.03277 9.24079,25.47711 18.61646,16.79948 4.27717,-3.9587 3.57295,-6.99178 -1.61968,-6.97598 -6.04537,0.0183 -6.78668,-7.98307 -0.80521,-8.69111 10.87793,-1.2876 10.19902,16.69532 -0.77008,20.39768 -17.7635,5.99566 -25.49592,-22.05938 -8.60526,-31.22201 22.44346,-12.17486 45.96002,15.95941 31.7265,37.95628 -10.28486,15.89452 -29.44112,16.35863 -46.36492,1.1233 -6.32376,-5.69285 -6.32945,-5.69471 -5.36184,-1.7519 1.05962,4.31769 -0.0936,11.87334 -1.81212,11.87334 -2.22504,0 -4.43067,-8.50913 -3.76686,-14.53221 0.78234,-7.09856 -2.73368,-11.38704 -11.861991,-14.46811 -15.44865,-5.21431 -27.35287,9.8595 -17.36922,21.99392 6.08799,7.39952 18.434981,4.37196 18.434981,-4.52035 0,-5.06003 -1.306041,-6.08582 -3.645901,-2.8636 -1.54123,2.12244 -2.42401,2.35232 -4.37177,1.13841 -6.16634,-3.84308 -1.49216,-10.99288 4.89951,-7.49444 9.742871,5.33267 4.494951,22.12649 -6.91435,22.12649 -8.92719,0 -15.94441,-7.39996 -15.94441,-16.81404 v -4.53017 l -6.00723,7.02317 c -9.48443,11.08842 -25.38796,16.35901 -38.90584,12.89378 z m 139.967371,-3.05809 c 2.40419,-2.46692 4.65966,-5.38124 5.01214,-6.47628 0.50349,-1.56417 1.64055,-1.21112 5.30454,1.64703 2.56505,2.00088 7.38408,4.87133 10.70897,6.37881 l 6.16477,2.80192 -15.84057,0.0363 -15.7211,0.0974 4.37125,-4.48535 z M 3.1950387,18.931323 c 0.0678,-10.6853729 -0.41228,-16.9707218 0.18893,-14.9493933 1.49888,5.0394324 6.2851,12.5741403 10.0439403,17.7096023 1.80564,2.466935 2.64483,4.485339 1.86487,4.485339 -0.77997,0 -3.84714,2.484189 -6.8159303,5.520417 l -5.3978,5.520419 z" id="path237" sodipodi:nodetypes="ssssssssssssssssssssssssssssccscsscsscssssscssssscsssssssssssssssscssscssscccccssssscs" style="fill-opacity:1;stroke:none;stroke-width:0;stroke-linecap:round;stroke-linejoin:round;stroke-dasharray:none;stroke-opacity:1;paint-order:stroke markers fill">
    </path>
   </g>
  </svg>
 </g>
 <!-- UR -->
 <g transform="translate(620,5) translate(50, 30) scale(-1,-1) translate(-50, -50) scale(0.4)">
  <svg height="200" id="svg2" inkscape:version="1.2.2 (732a01da63, 2022-12-09)" sodipodi:docname="E.svg" version="1.1" viewbox="0 0 200 200" width="200" xmlns="http://www.w3.org/2000/svg" xmlns:inkscape="http://www.inkscape.org/namespaces/inkscape" xmlns:sodipodi="http://sodipodi.sourceforge.net/DTD/sodipodi-0.dtd" xmlns:svg="http://www.w3.org/2000/svg">
   <defs id="defs6">
    <inkscape:path-effect add_other_stroke_width="inkscape_1.0_and_up" add_stroke_width="inkscape_1.0_and_up" both="false" crossing_points_vector="" effect="knot" id="path-effect280" interruption_width="3" inverse_width="false" is_visible="true" lpeversion="1" prop_to_stroke_width="true" switcher_size="15">
    </inkscape:path-effect>
   </defs>
   <sodipodi:namedview bordercolor="" borderopacity="0.25" id="namedview4" inkscape:current-layer="g8" inkscape:cx="97.520661" inkscape:cy="157.02479" inkscape:deskcolor="#d1d1d1" inkscape:pagecheckerboard="0" inkscape:pageopacity="0.0" inkscape:showpageshadow="2" inkscape:window-height="1018" inkscape:window-maximized="0" inkscape:window-width="958" inkscape:window-x="946" inkscape:window-y="0" inkscape:zoom="2.1175" pagecolor="" showgrid="false">
   </sodipodi:namedview>
   <g id="g8" inkscape:groupmode="layer" inkscape:label="Image">
    <path d="M 29.686839,195.88256 C 8.3467987,190.41216 -2.6261213,168.1575 6.6400487,149.14032 c 11.0614603,-22.7017 45.1224403,-18.15671 47.3520703,6.31853 1.54064,16.91199 -18.10402,27.31399 -29.52491,15.63365 -7.81151,-7.98896 -3.14925,-24.11541 5.58916,-19.33253 5.3964,2.95368 3.23374,10.35719 -3.02547,10.35719 -5.37512,0 -5.88269,0.67861 -3.67009,4.9068 6.83651,13.06433 27.01561,5.09379 26.9268,-10.6358 -0.1514,-26.81504 -40.6813503,-25.51316 -42.8617503,1.37678 -2.45247,30.24546 33.3985803,44.30905 54.6232403,21.4275 12.98883,-14.00277 12.24003,-42.60721 -1.11536,-42.60721 -6.82416,0 -12.83705,-2.286 -15.88172,-6.03793 -2.63693,-3.24949 5.87908,-4.34128 13.34445,-1.71083 7.62842,2.68793 7.76722,2.41621 2.4235,-4.74443 -6.69435,-8.97049 -20.98598,-18.57416 -23.83616,-16.01736 -8.03685,7.20955 -26.51711,10.39607 -31.3899803,5.4125 -2.75812,-2.82076 11.7268003,-9.1924 20.7632403,-9.13335 9.40879,0.0615 9.37943,0.30747 0.57017,-4.777107 -32.1064103,-18.531345 -31.6897403,-64.843277 0.64722,-71.93585 28.38551,-6.225888 45.98865,34.442931 19.40288,44.826773 -17.17824,6.709458 -33.50096,-12.118165 -21.88559,-25.244182 4.76926,-5.389536 13.46534,-2.111955 10.32395,3.891129 -1.73853,3.322258 -6.10504,3.459038 -7.9548,0.249184 -1.95097,-3.385472 -4.10199,0.06268 -4.08943,6.555496 0.0306,15.844089 21.80311,18.685375 28.73315,3.749648 10.63317,-22.916756 -18.87378,-40.106786 -37.00842,-21.560202 -15.48845034,15.840288 -6.5611403,44.073549 18.51469,58.554062 3.61792,2.089249 9.91793,5.768179 14.00001,8.175399 l 7.42198,4.37677 0.0107,-13.191821 c 0.009,-11.115824 0.51823,-14.240903 3.23583,-19.858165 l 3.22513,-6.666347 2.80835,4.536231 c 4.79541,7.745882 4.66396,20.767025 -0.31065,30.771972 l -4.06447,8.17446 5.49573,6.31663 c 9.31946,10.71152 12.49407,19.37915 12.51883,34.18019 l 0.0212,12.6824 3.02589,-2.90724 c 2.04278,-1.9627 5.37008,-3.10607 10.24106,-3.51918 6.74043,-0.57166 7.32181,-0.91352 8.835711,-5.19527 2.67798,-7.57403 15.01844,-16.89215 15.00218,-11.32793 -0.0101,3.45835 -5.53568,10.87514 -10.19803,13.68848 l -4.78081,2.88482 3.87261,2.40858 c 2.12994,1.3247 8.38576,7.1998 13.90182,13.05579 20.29599,21.5466 40.38549,20.19735 47.23164,-3.17221 6.66115,-22.73793 -25.05159,-38.74935 -34.96952,-17.65571 -5.65765,12.03277 9.24079,25.47711 18.61646,16.79948 4.27717,-3.9587 3.57295,-6.99178 -1.61968,-6.97598 -6.04537,0.0183 -6.78668,-7.98307 -0.80521,-8.69111 10.87793,-1.2876 10.19902,16.69532 -0.77008,20.39768 -17.7635,5.99566 -25.49592,-22.05938 -8.60526,-31.22201 22.44346,-12.17486 45.96002,15.95941 31.7265,37.95628 -10.28486,15.89452 -29.44112,16.35863 -46.36492,1.1233 -6.32376,-5.69285 -6.32945,-5.69471 -5.36184,-1.7519 1.05962,4.31769 -0.0936,11.87334 -1.81212,11.87334 -2.22504,0 -4.43067,-8.50913 -3.76686,-14.53221 0.78234,-7.09856 -2.73368,-11.38704 -11.861991,-14.46811 -15.44865,-5.21431 -27.35287,9.8595 -17.36922,21.99392 6.08799,7.39952 18.434981,4.37196 18.434981,-4.52035 0,-5.06003 -1.306041,-6.08582 -3.645901,-2.8636 -1.54123,2.12244 -2.42401,2.35232 -4.37177,1.13841 -6.16634,-3.84308 -1.49216,-10.99288 4.89951,-7.49444 9.742871,5.33267 4.494951,22.12649 -6.91435,22.12649 -8.92719,0 -15.94441,-7.39996 -15.94441,-16.81404 v -4.53017 l -6.00723,7.02317 c -9.48443,11.08842 -25.38796,16.35901 -38.90584,12.89378 z m 139.967371,-3.05809 c 2.40419,-2.46692 4.65966,-5.38124 5.01214,-6.47628 0.50349,-1.56417 1.64055,-1.21112 5.30454,1.64703 2.56505,2.00088 7.38408,4.87133 10.70897,6.37881 l 6.16477,2.80192 -15.84057,0.0363 -15.7211,0.0974 4.37125,-4.48535 z M 3.1950387,18.931323 c 0.0678,-10.6853729 -0.41228,-16.9707218 0.18893,-14.9493933 1.49888,5.0394324 6.2851,12.5741403 10.0439403,17.7096023 1.80564,2.466935 2.64483,4.485339 1.86487,4.485339 -0.77997,0 -3.84714,2.484189 -6.8159303,5.520417 l -5.3978,5.520419 z" id="path237" sodipodi:nodetypes="ssssssssssssssssssssssssssssccscsscsscssssscssssscsssssssssssssssscssscssscccccssssscs" style="fill-opacity:1;stroke:none;stroke-width:0;stroke-linecap:round;stroke-linejoin:round;stroke-dasharray:none;stroke-opacity:1;paint-order:stroke markers fill">
    </path>
   </g>
  </svg>
 </g>
 <!-- BL -->
 <g transform="translate(5,325) scale(0.4)">
  <svg height="200" id="svg2" inkscape:version="1.2.2 (732a01da63, 2022-12-09)" sodipodi:docname="E.svg" version="1.1" viewbox="0 0 200 200" width="200" xmlns="http://www.w3.org/2000/svg" xmlns:inkscape="http://www.inkscape.org/namespaces/inkscape" xmlns:sodipodi="http://sodipodi.sourceforge.net/DTD/sodipodi-0.dtd" xmlns:svg="http://www.w3.org/2000/svg">
   <defs id="defs6">
    <inkscape:path-effect add_other_stroke_width="inkscape_1.0_and_up" add_stroke_width="inkscape_1.0_and_up" both="false" crossing_points_vector="" effect="knot" id="path-effect280" interruption_width="3" inverse_width="false" is_visible="true" lpeversion="1" prop_to_stroke_width="true" switcher_size="15">
    </inkscape:path-effect>
   </defs>
   <sodipodi:namedview bordercolor="" borderopacity="0.25" id="namedview4" inkscape:current-layer="g8" inkscape:cx="97.520661" inkscape:cy="157.02479" inkscape:deskcolor="#d1d1d1" inkscape:pagecheckerboard="0" inkscape:pageopacity="0.0" inkscape:showpageshadow="2" inkscape:window-height="1018" inkscape:window-maximized="0" inkscape:window-width="958" inkscape:window-x="946" inkscape:window-y="0" inkscape:zoom="2.1175" pagecolor="" showgrid="false">
   </sodipodi:namedview>
   <g id="g8" inkscape:groupmode="layer" inkscape:label="Image">
    <path d="M 29.686839,195.88256 C 8.3467987,190.41216 -2.6261213,168.1575 6.6400487,149.14032 c 11.0614603,-22.7017 45.1224403,-18.15671 47.3520703,6.31853 1.54064,16.91199 -18.10402,27.31399 -29.52491,15.63365 -7.81151,-7.98896 -3.14925,-24.11541 5.58916,-19.33253 5.3964,2.95368 3.23374,10.35719 -3.02547,10.35719 -5.37512,0 -5.88269,0.67861 -3.67009,4.9068 6.83651,13.06433 27.01561,5.09379 26.9268,-10.6358 -0.1514,-26.81504 -40.6813503,-25.51316 -42.8617503,1.37678 -2.45247,30.24546 33.3985803,44.30905 54.6232403,21.4275 12.98883,-14.00277 12.24003,-42.60721 -1.11536,-42.60721 -6.82416,0 -12.83705,-2.286 -15.88172,-6.03793 -2.63693,-3.24949 5.87908,-4.34128 13.34445,-1.71083 7.62842,2.68793 7.76722,2.41621 2.4235,-4.74443 -6.69435,-8.97049 -20.98598,-18.57416 -23.83616,-16.01736 -8.03685,7.20955 -26.51711,10.39607 -31.3899803,5.4125 -2.75812,-2.82076 11.7268003,-9.1924 20.7632403,-9.13335 9.40879,0.0615 9.37943,0.30747 0.57017,-4.777107 -32.1064103,-18.531345 -31.6897403,-64.843277 0.64722,-71.93585 28.38551,-6.225888 45.98865,34.442931 19.40288,44.826773 -17.17824,6.709458 -33.50096,-12.118165 -21.88559,-25.244182 4.76926,-5.389536 13.46534,-2.111955 10.32395,3.891129 -1.73853,3.322258 -6.10504,3.459038 -7.9548,0.249184 -1.95097,-3.385472 -4.10199,0.06268 -4.08943,6.555496 0.0306,15.844089 21.80311,18.685375 28.73315,3.749648 10.63317,-22.916756 -18.87378,-40.106786 -37.00842,-21.560202 -15.48845034,15.840288 -6.5611403,44.073549 18.51469,58.554062 3.61792,2.089249 9.91793,5.768179 14.00001,8.175399 l 7.42198,4.37677 0.0107,-13.191821 c 0.009,-11.115824 0.51823,-14.240903 3.23583,-19.858165 l 3.22513,-6.666347 2.80835,4.536231 c 4.79541,7.745882 4.66396,20.767025 -0.31065,30.771972 l -4.06447,8.17446 5.49573,6.31663 c 9.31946,10.71152 12.49407,19.37915 12.51883,34.18019 l 0.0212,12.6824 3.02589,-2.90724 c 2.04278,-1.9627 5.37008,-3.10607 10.24106,-3.51918 6.74043,-0.57166 7.32181,-0.91352 8.835711,-5.19527 2.67798,-7.57403 15.01844,-16.89215 15.00218,-11.32793 -0.0101,3.45835 -5.53568,10.87514 -10.19803,13.68848 l -4.78081,2.88482 3.87261,2.40858 c 2.12994,1.3247 8.38576,7.1998 13.90182,13.05579 20.29599,21.5466 40.38549,20.19735 47.23164,-3.17221 6.66115,-22.73793 -25.05159,-38.74935 -34.96952,-17.65571 -5.65765,12.03277 9.24079,25.47711 18.61646,16.79948 4.27717,-3.9587 3.57295,-6.99178 -1.61968,-6.97598 -6.04537,0.0183 -6.78668,-7.98307 -0.80521,-8.69111 10.87793,-1.2876 10.19902,16.69532 -0.77008,20.39768 -17.7635,5.99566 -25.49592,-22.05938 -8.60526,-31.22201 22.44346,-12.17486 45.96002,15.95941 31.7265,37.95628 -10.28486,15.89452 -29.44112,16.35863 -46.36492,1.1233 -6.32376,-5.69285 -6.32945,-5.69471 -5.36184,-1.7519 1.05962,4.31769 -0.0936,11.87334 -1.81212,11.87334 -2.22504,0 -4.43067,-8.50913 -3.76686,-14.53221 0.78234,-7.09856 -2.73368,-11.38704 -11.861991,-14.46811 -15.44865,-5.21431 -27.35287,9.8595 -17.36922,21.99392 6.08799,7.39952 18.434981,4.37196 18.434981,-4.52035 0,-5.06003 -1.306041,-6.08582 -3.645901,-2.8636 -1.54123,2.12244 -2.42401,2.35232 -4.37177,1.13841 -6.16634,-3.84308 -1.49216,-10.99288 4.89951,-7.49444 9.742871,5.33267 4.494951,22.12649 -6.91435,22.12649 -8.92719,0 -15.94441,-7.39996 -15.94441,-16.81404 v -4.53017 l -6.00723,7.02317 c -9.48443,11.08842 -25.38796,16.35901 -38.90584,12.89378 z m 139.967371,-3.05809 c 2.40419,-2.46692 4.65966,-5.38124 5.01214,-6.47628 0.50349,-1.56417 1.64055,-1.21112 5.30454,1.64703 2.56505,2.00088 7.38408,4.87133 10.70897,6.37881 l 6.16477,2.80192 -15.84057,0.0363 -15.7211,0.0974 4.37125,-4.48535 z M 3.1950387,18.931323 c 0.0678,-10.6853729 -0.41228,-16.9707218 0.18893,-14.9493933 1.49888,5.0394324 6.2851,12.5741403 10.0439403,17.7096023 1.80564,2.466935 2.64483,4.485339 1.86487,4.485339 -0.77997,0 -3.84714,2.484189 -6.8159303,5.520417 l -5.3978,5.520419 z" id="path237" sodipodi:nodetypes="ssssssssssssssssssssssssssssccscsscsscssssscssssscsssssssssssssssscssscssscccccssssscs" style="fill-opacity:1;stroke:none;stroke-width:0;stroke-linecap:round;stroke-linejoin:round;stroke-dasharray:none;stroke-opacity:1;paint-order:stroke markers fill">
    </path>
   </g>
  </svg>
 </g>
 <!-- BR -->
 <g transform="translate(620,325) translate(50, 50) scale(-1,1) translate(-50, -50) scale(0.4)">
  <svg height="200" id="svg2" inkscape:version="1.2.2 (732a01da63, 2022-12-09)" sodipodi:docname="E.svg" version="1.1" viewbox="0 0 200 200" width="200" xmlns="http://www.w3.org/2000/svg" xmlns:inkscape="http://www.inkscape.org/namespaces/inkscape" xmlns:sodipodi="http://sodipodi.sourceforge.net/DTD/sodipodi-0.dtd" xmlns:svg="http://www.w3.org/2000/svg">
   <defs id="defs6">
    <inkscape:path-effect add_other_stroke_width="inkscape_1.0_and_up" add_stroke_width="inkscape_1.0_and_up" both="false" crossing_points_vector="" effect="knot" id="path-effect280" interruption_width="3" inverse_width="false" is_visible="true" lpeversion="1" prop_to_stroke_width="true" switcher_size="15">
    </inkscape:path-effect>
   </defs>
   <sodipodi:namedview bordercolor="" borderopacity="0.25" id="namedview4" inkscape:current-layer="g8" inkscape:cx="97.520661" inkscape:cy="157.02479" inkscape:deskcolor="#d1d1d1" inkscape:pagecheckerboard="0" inkscape:pageopacity="0.0" inkscape:showpageshadow="2" inkscape:window-height="1018" inkscape:window-maximized="0" inkscape:window-width="958" inkscape:window-x="946" inkscape:window-y="0" inkscape:zoom="2.1175" pagecolor="" showgrid="false">
   </sodipodi:namedview>
   <g id="g8" inkscape:groupmode="layer" inkscape:label="Image">
    <path d="M 29.686839,195.88256 C 8.3467987,190.41216 -2.6261213,168.1575 6.6400487,149.14032 c 11.0614603,-22.7017 45.1224403,-18.15671 47.3520703,6.31853 1.54064,16.91199 -18.10402,27.31399 -29.52491,15.63365 -7.81151,-7.98896 -3.14925,-24.11541 5.58916,-19.33253 5.3964,2.95368 3.23374,10.35719 -3.02547,10.35719 -5.37512,0 -5.88269,0.67861 -3.67009,4.9068 6.83651,13.06433 27.01561,5.09379 26.9268,-10.6358 -0.1514,-26.81504 -40.6813503,-25.51316 -42.8617503,1.37678 -2.45247,30.24546 33.3985803,44.30905 54.6232403,21.4275 12.98883,-14.00277 12.24003,-42.60721 -1.11536,-42.60721 -6.82416,0 -12.83705,-2.286 -15.88172,-6.03793 -2.63693,-3.24949 5.87908,-4.34128 13.34445,-1.71083 7.62842,2.68793 7.76722,2.41621 2.4235,-4.74443 -6.69435,-8.97049 -20.98598,-18.57416 -23.83616,-16.01736 -8.03685,7.20955 -26.51711,10.39607 -31.3899803,5.4125 -2.75812,-2.82076 11.7268003,-9.1924 20.7632403,-9.13335 9.40879,0.0615 9.37943,0.30747 0.57017,-4.777107 -32.1064103,-18.531345 -31.6897403,-64.843277 0.64722,-71.93585 28.38551,-6.225888 45.98865,34.442931 19.40288,44.826773 -17.17824,6.709458 -33.50096,-12.118165 -21.88559,-25.244182 4.76926,-5.389536 13.46534,-2.111955 10.32395,3.891129 -1.73853,3.322258 -6.10504,3.459038 -7.9548,0.249184 -1.95097,-3.385472 -4.10199,0.06268 -4.08943,6.555496 0.0306,15.844089 21.80311,18.685375 28.73315,3.749648 10.63317,-22.916756 -18.87378,-40.106786 -37.00842,-21.560202 -15.48845034,15.840288 -6.5611403,44.073549 18.51469,58.554062 3.61792,2.089249 9.91793,5.768179 14.00001,8.175399 l 7.42198,4.37677 0.0107,-13.191821 c 0.009,-11.115824 0.51823,-14.240903 3.23583,-19.858165 l 3.22513,-6.666347 2.80835,4.536231 c 4.79541,7.745882 4.66396,20.767025 -0.31065,30.771972 l -4.06447,8.17446 5.49573,6.31663 c 9.31946,10.71152 12.49407,19.37915 12.51883,34.18019 l 0.0212,12.6824 3.02589,-2.90724 c 2.04278,-1.9627 5.37008,-3.10607 10.24106,-3.51918 6.74043,-0.57166 7.32181,-0.91352 8.835711,-5.19527 2.67798,-7.57403 15.01844,-16.89215 15.00218,-11.32793 -0.0101,3.45835 -5.53568,10.87514 -10.19803,13.68848 l -4.78081,2.88482 3.87261,2.40858 c 2.12994,1.3247 8.38576,7.1998 13.90182,13.05579 20.29599,21.5466 40.38549,20.19735 47.23164,-3.17221 6.66115,-22.73793 -25.05159,-38.74935 -34.96952,-17.65571 -5.65765,12.03277 9.24079,25.47711 18.61646,16.79948 4.27717,-3.9587 3.57295,-6.99178 -1.61968,-6.97598 -6.04537,0.0183 -6.78668,-7.98307 -0.80521,-8.69111 10.87793,-1.2876 10.19902,16.69532 -0.77008,20.39768 -17.7635,5.99566 -25.49592,-22.05938 -8.60526,-31.22201 22.44346,-12.17486 45.96002,15.95941 31.7265,37.95628 -10.28486,15.89452 -29.44112,16.35863 -46.36492,1.1233 -6.32376,-5.69285 -6.32945,-5.69471 -5.36184,-1.7519 1.05962,4.31769 -0.0936,11.87334 -1.81212,11.87334 -2.22504,0 -4.43067,-8.50913 -3.76686,-14.53221 0.78234,-7.09856 -2.73368,-11.38704 -11.861991,-14.46811 -15.44865,-5.21431 -27.35287,9.8595 -17.36922,21.99392 6.08799,7.39952 18.434981,4.37196 18.434981,-4.52035 0,-5.06003 -1.306041,-6.08582 -3.645901,-2.8636 -1.54123,2.12244 -2.42401,2.35232 -4.37177,1.13841 -6.16634,-3.84308 -1.49216,-10.99288 4.89951,-7.49444 9.742871,5.33267 4.494951,22.12649 -6.91435,22.12649 -8.92719,0 -15.94441,-7.39996 -15.94441,-16.81404 v -4.53017 l -6.00723,7.02317 c -9.48443,11.08842 -25.38796,16.35901 -38.90584,12.89378 z m 139.967371,-3.05809 c 2.40419,-2.46692 4.65966,-5.38124 5.01214,-6.47628 0.50349,-1.56417 1.64055,-1.21112 5.30454,1.64703 2.56505,2.00088 7.38408,4.87133 10.70897,6.37881 l 6.16477,2.80192 -15.84057,0.0363 -15.7211,0.0974 4.37125,-4.48535 z M 3.1950387,18.931323 c 0.0678,-10.6853729 -0.41228,-16.9707218 0.18893,-14.9493933 1.49888,5.0394324 6.2851,12.5741403 10.0439403,17.7096023 1.80564,2.466935 2.64483,4.485339 1.86487,4.485339 -0.77997,0 -3.84714,2.484189 -6.8159303,5.520417 l -5.3978,5.520419 z" id="path237" sodipodi:nodetypes="ssssssssssssssssssssssssssssccscsscsscssssscssssscsssssssssssssssscssscssscccccssssscs" style="fill-opacity:1;stroke:none;stroke-width:0;stroke-linecap:round;stroke-linejoin:round;stroke-dasharray:none;stroke-opacity:1;paint-order:stroke markers fill">
    </path>
   </g>
  </svg>
 </g>
 <g transform="translate(10,10)">
  <!-- 0 -->
  <svg height="200" viewbox="0 0 700 200" width="700" xmlns="http://www.w3.org/2000/svg">
   <style>
    * {
          font-family: 'Segoe UI', Ubuntu, "Helvetica Neue", Sans-Serif
        }
   </style>
   <rect fill="#00000000" height="99%" rx="5" ry="5" stroke="" stroke-opacity="0" stroke-width="1" width="99.71428571428571%" x="1" y="1">
   </rect>
   <text style="font-size: 22px; " x="30" y="40">
    PYBrulin (Pierre-Yves BRULIN)
   </text>
   <g transform="translate(0,40)">
    <g transform="translate(30,30)">
     <g fill="" height="14" transform="translate(0,0)" width="14">
      <path d="M8 0C3.58 0 0 3.58 0 8c0 3.54 2.29 6.53 5.47 7.59.4.07.55-.17.55-.38 0-.19-.01-.82-.01-1.49-2.01.37-2.53-.49-2.69-.94-.09-.23-.48-.94-.82-1.13-.28-.15-.68-.52-.01-.53.63-.01 1.08.58 1.23.82.72 1.21 1.87.87 2.33.66.07-.52.28-.87.51-1.07-1.78-.2-3.64-.89-3.64-3.95 0-.87.31-1.59.82-2.15-.08-.2-.36-1.02.08-2.12 0 0 .67-.21 2.2.82.64-.18 1.32-.27 2-.27.68 0 1.36.09 2 .27 1.53-1.04 2.2-.82 2.2-.82.44 1.1.16 1.92.08 2.12.51.56.82 1.27.82 2.15 0 3.07-1.87 3.75-3.65 3.95.29.25.54.73.54 1.48 0 1.07-.01 1.93-.01 2.2 0 .21.15.46.55.38A8.013 8.013 0 0016 8c0-4.42-3.58-8-8-8z" fill-rule="evenodd">
      </path>
     </g>
     <g fill="" height="14" transform="translate(0,28)" width="14">
      <path d="M2 2.5A2.5 2.5 0 014.5 0h8.75a.75.75 0 01.75.75v12.5a.75.75 0 01-.75.75h-2.5a.75.75 0 110-1.5h1.75v-2h-8a1 1 0 00-.714 1.7.75.75 0 01-1.072 1.05A2.495 2.495 0 012 11.5v-9zm10.5-1V9h-8c-.356 0-.694.074-1 .208V2.5a1 1 0 011-1h8zM5 12.25v3.25a.25.25 0 00.4.2l1.45-1.087a.25.25 0 01.3 0L8.6 15.7a.25.25 0 00.4-.2v-3.25a.25.25 0 00-.25-.25h-3.5a.25.25 0 00-.25.25z" fill-rule="evenodd">
      </path>
     </g>
     <g fill="" height="14" transform="translate(0,56)" width="14">
      <path d="M1.5 8a6.5 6.5 0 1113 0 6.5 6.5 0 01-13 0zM8 0a8 8 0 100 16A8 8 0 008 0zm.5 4.75a.75.75 0 00-1.5 0v3.5a.75.75 0 00.471.696l2.5 1a.75.75 0 00.557-1.392L8.5 7.742V4.75z" fill-rule="evenodd">
      </path>
     </g>
     <g fill="" height="14" transform="translate(0,84)" width="14">
      <path d="M11.536 3.464a5 5 0 010 7.072L8 14.07l-3.536-3.535a5 5 0 117.072-7.072v.001zm1.06 8.132a6.5 6.5 0 10-9.192 0l3.535 3.536a1.5 1.5 0 002.122 0l3.535-3.536zM8 9a2 2 0 100-4 2 2 0 000 4z" fill-rule="evenodd">
      </path>
     </g>
     <text style=" font-size: 14px;" x="21" y="14">
      10.82k Contributions on GitHub
     </text>
     <text style=" font-size: 14px;" x="21" y="42">
      8 Public Repos
     </text>
     <text style=" font-size: 14px;" x="21" y="70">
      Joined GitHub 7 years ago
     </text>
     <text style=" font-size: 14px;" x="21" y="98">
      France
     </text>
    </g>
    <g color="" transform="translate(295,10)">
     <path d="M0,58.177777777777784C10.757990867579908,42.655555555555566,21.51598173515982,27.133333333333336,32.273972602739725,27.133333333333336C43.03196347031963,27.133333333333336,53.789954337899545,30.066666666666666,64.54794520547945,30.066666666666666C74.2648401826484,30.066666666666666,83.98173515981735,0.733333333333338,93.6986301369863,0.733333333333338C104.45662100456622,0.733333333333338,115.21461187214612,15.884391823517502,125.97260273972604,22.488888888888887C136.38356164383563,28.88033766182893,146.7945205479452,33.99591828740427,157.2054794520548,39.84444444444444C167.9634703196347,45.88792147338596,178.72146118721463,58.177777777777784,189.47945205479454,58.177777777777784C199.8904109589041,58.177777777777784,210.3013698630137,57.444444444444436,220.71232876712327,57.444444444444436C231.4703196347032,57.444444444444436,242.2283105022831,69.17777777777778,252.98630136986304,69.17777777777778C263.74429223744295,69.17777777777778,274.50228310502285,41.37086419753088,285.26027397260276,34.46666666666667C295.67123287671234,27.785185185185185,306.0821917808219,24.444444444444443,316.4931506849315,24.444444444444443C327.2511415525114,24.444444444444443,338.0091324200913,32.91535721513865,348.7671232876712,47.422222222222224C359.1780821917808,61.46112384198054,369.5890410958904,85.11945080987915,380,108.77777777777779L380,110C369.5890410958904,110,359.1780821917808,110,348.7671232876712,110C338.0091324200913,110,327.2511415525114,110,316.4931506849315,110C306.0821917808219,110,295.67123287671234,110,285.26027397260276,110C274.50228310502285,110,263.74429223744295,110,252.98630136986304,110C242.2283105022831,110,231.4703196347032,110,220.71232876712327,110C210.3013698630137,110,199.8904109589041,110,189.47945205479454,110C178.72146118721463,110,167.9634703196347,110,157.2054794520548,110C146.7945205479452,110,136.38356164383563,110,125.97260273972604,110C115.21461187214612,110,104.45662100456622,110,93.6986301369863,110C83.98173515981735,110,74.2648401826484,110,64.54794520547945,110C53.789954337899545,110,43.03196347031963,110,32.273972602739725,110C21.51598173515982,110,10.757990867579908,110,0,110Z" fill="" opacity="1" stroke="" transform="translate(-30,0)">
     </path>
     <g color="" fill="none" font-family="sans-serif" font-size="10" text-anchor="middle" transform="translate(-30,110)">
      <path class="domain"  >
      </path>
      <g class="tick" opacity="1" transform="translate(0.5,0)">
       <line  y2="6">
       </line>
       <text dy="0.71em"  y="9">
        24/12
       </text>
      </g>
      <g class="tick" opacity="1" transform="translate(65.04794520547945,0)">
       <line  y2="6">
       </line>
       <text dy="0.71em"  y="9">
        25/02
       </text>
      </g>
      <g class="tick" opacity="1" transform="translate(126.47260273972604,0)">
       <line  y2="6">
       </line>
       <text dy="0.71em"  y="9">
        25/04
       </text>
      </g>
      <g class="tick" opacity="1" transform="translate(189.97945205479454,0)">
       <line  y2="6">
       </line>
       <text dy="0.71em"  y="9">
        25/06
       </text>
      </g>
      <g class="tick" opacity="1" transform="translate(253.48630136986304,0)">
       <line  y2="6">
       </line>
       <text dy="0.71em"  y="9">
        25/08
       </text>
      </g>
      <g class="tick" opacity="1" transform="translate(316.9931506849315,0)">
       <line  y2="6">
       </line>
       <text dy="0.71em"  y="9">
        25/10
       </text>
      </g>
      <g class="tick" opacity="1" transform="translate(380.5,0)">
       <line  y2="6">
       </line>
       <text dy="0.71em"  y="9">
        25/12
       </text>
      </g>
     </g>
     <g color="" fill="none" font-family="sans-serif" font-size="10" text-anchor="start" transform="translate(350,0)">
      <path class="domain"  >
      </path>
      <g class="tick" opacity="1" transform="translate(0,110.5)">
       <line  x2="6">
       </line>
       <text dy="0.32em"  x="9">
        0
       </text>
      </g>
      <g class="tick" opacity="1" transform="translate(0,98.27777777777777)">
       <line  x2="6">
       </line>
       <text dy="0.32em"  x="9">
        50
       </text>
      </g>
      <g class="tick" opacity="1" transform="translate(0,86.05555555555556)">
       <line  x2="6">
       </line>
       <text dy="0.32em"  x="9">
        100
       </text>
      </g>
      <g class="tick" opacity="1" transform="translate(0,73.83333333333334)">
       <line  x2="6">
       </line>
       <text dy="0.32em"  x="9">
        150
       </text>
      </g>
      <g class="tick" opacity="1" transform="translate(0,61.611111111111114)">
       <line  x2="6">
       </line>
       <text dy="0.32em"  x="9">
        200
       </text>
      </g>
      <g class="tick" opacity="1" transform="translate(0,49.388888888888886)">
       <line  x2="6">
       </line>
       <text dy="0.32em"  x="9">
        250
       </text>
      </g>
      <g class="tick" opacity="1" transform="translate(0,37.16666666666667)">
       <line  x2="6">
       </line>
       <text dy="0.32em"  x="9">
        300
       </text>
      </g>
      <g class="tick" opacity="1" transform="translate(0,24.944444444444443)">
       <line  x2="6">
       </line>
       <text dy="0.32em"  x="9">
        350
       </text>
      </g>
      <g class="tick" opacity="1" transform="translate(0,12.722222222222229)">
       <line  x2="6">
       </line>
       <text dy="0.32em"  x="9">
        400
       </text>
      </g>
      <g class="tick" opacity="1" transform="translate(0,0.5)">
       <line  x2="6">
       </line>
       <text dy="0.32em"  x="9">
        450
       </text>
      </g>
     </g>
     <g>
      <text style=" font-size: 10px;" x="230" y="-15">
       contributions in the last year
      </text>
     </g>
    </g>
   </g>
  </svg>
  <!-- 1 -->
  <g transform="translate(0,180)">
   <svg height="200" viewbox="0 0 340 200" width="340" xmlns="http://www.w3.org/2000/svg">
    <style>
     * {
          font-family: 'Segoe UI', Ubuntu, "Helvetica Neue", Sans-Serif
        }
    </style>
    <rect fill="#00000000" height="99%" rx="5" ry="5" stroke="" stroke-opacity="0" stroke-width="1" width="99.41176470588235%" x="1" y="1">
    </rect>
    <text style="font-size: 22px; " x="30" y="40">
     Top Languages by Repo
    </text>
    <g transform="translate(0,40)">
     <g transform="translate(40,0)">
      <rect fill="#3572A5" height="14" stroke="#00000000" style="stroke-width: 1px;" width="14" y="18">
      </rect>
      <rect fill="#f34b7d" height="14" stroke="#00000000" style="stroke-width: 1px;" width="14" y="43.2">
      </rect>
      <rect fill="#3D6117" height="14" stroke="#00000000" style="stroke-width: 1px;" width="14" y="68.4">
      </rect>
      <rect fill="#7e7eff" height="14" stroke="#00000000" style="stroke-width: 1px;" width="14" y="93.60000000000002">
      </rect>
      <rect fill="#da291c" height="14" stroke="#00000000" style="stroke-width: 1px;" width="14" y="118.80000000000001">
      </rect>
      <text style=" font-size: 14px;" x="16.8" y="30">
       Python
      </text>
      <text style=" font-size: 14px;" x="16.8" y="55.2">
       C++
      </text>
      <text style=" font-size: 14px;" x="16.8" y="80.4">
       TeX
      </text>
      <text style=" font-size: 14px;" x="16.8" y="105.60000000000002">
       Nix
      </text>
      <text style=" font-size: 14px;" x="16.8" y="130.8">
       PostScript
      </text>
     </g>
     <g transform="translate( 230, 80 )">
      <g class="arc">
       <path d="M3.67394039744206e-15,-60A60,60,0,1,1,-57.89253320061309,15.762442691915215L-33.7706443670243,9.194758236950541A35,35,0,1,0,2.1431318985078682e-15,-35Z" stroke="#00000000" style="fill: #3572A5; stroke-width: 1px;">
       </path>
      </g>
      <g class="arc">
       <path d="M-57.89253320061309,15.762442691915215A60,60,0,0,1,-57.06339097770922,-18.541019662496836L-33.28697807033038,-10.815594803123155A35,35,0,0,0,-33.7706443670243,9.194758236950541Z" stroke="#00000000" style="fill: #f34b7d; stroke-width: 1px;">
       </path>
      </g>
      <g class="arc">
       <path d="M-57.06339097770922,-18.541019662496836A60,60,0,0,1,-41.91068191493625,-42.93593764464724L-24.44789778371281,-25.045963626044223A35,35,0,0,0,-33.28697807033038,-10.815594803123155Z" stroke="#00000000" style="fill: #3D6117; stroke-width: 1px;">
       </path>
      </g>
      <g class="arc">
       <path d="M-41.91068191493625,-42.93593764464724A60,60,0,0,1,-17.156740703921415,-57.49474974654996L-10.008098743954157,-33.538604018820806A35,35,0,0,0,-24.44789778371281,-25.045963626044223Z" stroke="#00000000" style="fill: #7e7eff; stroke-width: 1px;">
       </path>
      </g>
      <g class="arc">
       <path d="M-17.156740703921415,-57.49474974654996A60,60,0,0,1,-6.431252637433369e-14,-60L-3.7515640385027985e-14,-35A35,35,0,0,0,-10.008098743954157,-33.538604018820806Z" stroke="#00000000" style="fill: #da291c; stroke-width: 1px;">
       </path>
      </g>
     </g>
    </g>
   </svg>
  </g>
  <!-- 2 -->
  <g transform="translate(360,180)">
   <svg height="200" viewbox="0 0 340 200" width="340" xmlns="http://www.w3.org/2000/svg">
    <style>
     * {
          font-family: 'Segoe UI', Ubuntu, "Helvetica Neue", Sans-Serif
        }
    </style>
    <rect fill="#00000000" height="99%" rx="5" ry="5" stroke="" stroke-opacity="0" stroke-width="1" width="99.41176470588235%" x="1" y="1">
    </rect>
    <text style="font-size: 22px; " x="30" y="40">
     Top Languages by Commit
    </text>
    <g transform="translate(0,40)">
     <g transform="translate(40,0)">
      <rect fill="#3572A5" height="14" stroke="#00000000" style="stroke-width: 1px;" width="14" y="18">
      </rect>
      <rect fill="#178600" height="14" stroke="#00000000" style="stroke-width: 1px;" width="14" y="43.2">
      </rect>
      <rect fill="#302B6D" height="14" stroke="#00000000" style="stroke-width: 1px;" width="14" y="68.4">
      </rect>
      <rect fill="#41b883" height="14" stroke="#00000000" style="stroke-width: 1px;" width="14" y="93.60000000000002">
      </rect>
      <rect fill="#7e7eff" height="14" stroke="#00000000" style="stroke-width: 1px;" width="14" y="118.80000000000001">
      </rect>
      <text style=" font-size: 14px;" x="16.8" y="30">
       Python
      </text>
      <text style=" font-size: 14px;" x="16.8" y="55.2">
       C#
      </text>
      <text style=" font-size: 14px;" x="16.8" y="80.4">
       Puppet
      </text>
      <text style=" font-size: 14px;" x="16.8" y="105.60000000000002">
       Vue
      </text>
      <text style=" font-size: 14px;" x="16.8" y="130.8">
       Nix
      </text>
     </g>
     <g transform="translate( 230, 80 )">
      <g class="arc">
       <path d="M3.67394039744206e-15,-60A60,60,0,1,1,-30.444312492393486,51.70245484370635L-17.759182287229535,30.159765325495368A35,35,0,1,0,2.1431318985078682e-15,-35Z" stroke="#00000000" style="fill: #3572A5; stroke-width: 1px;">
       </path>
      </g>
      <g class="arc">
       <path d="M-30.444312492393486,51.70245484370635A60,60,0,0,1,-59.79121956615415,5.001006177955106L-34.878211413589916,2.9172536038071453A35,35,0,0,0,-17.759182287229535,30.159765325495368Z" stroke="#00000000" style="fill: #178600; stroke-width: 1px;">
       </path>
      </g>
      <g class="arc">
       <path d="M-59.79121956615415,5.001006177955106A60,60,0,0,1,-45.743779489058156,-38.826622800037896L-26.683871368617258,-22.648863300022107A35,35,0,0,0,-34.878211413589916,2.9172536038071453Z" stroke="#00000000" style="fill: #302B6D; stroke-width: 1px;">
       </path>
      </g>
      <g class="arc">
       <path d="M-45.743779489058156,-38.826622800037896A60,60,0,0,1,-20.84307787887802,-56.26336378617106L-12.158462096012178,-32.82029554193312A35,35,0,0,0,-26.683871368617258,-22.648863300022107Z" stroke="#00000000" style="fill: #41b883; stroke-width: 1px;">
       </path>
      </g>
      <g class="arc">
       <path d="M-20.84307787887802,-56.26336378617106A60,60,0,0,1,-6.431252637433369e-14,-60L-3.7515640385027985e-14,-35A35,35,0,0,0,-12.158462096012178,-32.82029554193312Z" stroke="#00000000" style="fill: #7e7eff; stroke-width: 1px;">
       </path>
      </g>
     </g>
    </g>
   </svg>
  </g>
  <!-- <g transform="translate(0,360)">
            <image
                href="profile-summary-card-output/transparent/3-stats.svg" />
        </g>
        <g transform="translate(360,360)">
            <image
                href="profile-summary-card-output/transparent/4-productive-time.svg" />
        </g> -->
 </g>
</svg>
