<svg height="412" viewbox="0 0 720 400" width="730" xmlns="http://www.w3.org/2000/svg">
 <style>
  :root {
        --custom-color: #eeeeee80; /* Default color for light mode */
    }
    @media (prefers-color-scheme: dark) {
        :root {
            --custom-color: #22222280; /* Custom color for dark mode */
        }
    } 

    * {
        path {
            fill: black;
            stroke: black;
        }
        line {
            stroke: black;
        }
        text {
            fill: black;
        }
        tick {
            fill: black;
        }
        @media (prefers-color-scheme: dark) {
            path { 
                fill: white; 
                stroke: white;
            }
            line {
                stroke: white;
            }
            text {
                fill: white;
            }
            tick {
                fill: white;
            }
        }
    }
 </style>
 <rect fill="var(--custom-color)" height="99%" rx="20" ry="20" stroke="" stroke-opacity="0" stroke-width="1" width="99%" x="1" y="1">
 </rect>
 <!-- UL -->
 <g transform="translate(5,5) translate(50, 30) scale(1,-1) translate(-50, -50) scale(0.4)">
  <svg height="200" id="svg2" inkscape:version="1.2.2 (732a01da63, 2022-12-09)" sodipodi:docname="E.svg" version="1.1" viewbox="0 0 200 200" width="200" xmlns="http://www.w3.org/2000/svg" xmlns:inkscape="http://www.inkscape.org/namespaces/inkscape" xmlns:sodipodi="http://sodipodi.sourceforge.net/DTD/sodipodi-0.dtd" xmlns:svg="http://www.w3.org/2000/svg">
   <defs id="defs6">
    <inkscape:path-effect add_other_stroke_width="inkscape_1.0_and_up" add_stroke_width="inkscape_1.0_and_up" both="false" crossing_points_vector="" effect="knot" id="path-effect280" interruption_width="3" inverse_width="false" is_visible="true" lpeversion="1" prop_to_stroke_width="true" switcher_size="15">
    </inkscape:path-effect>
   </defs>
   <sodipodi:namedview bordercolor="" borderopacity="0.25" id="namedview4" inkscape:current-layer="g8" inkscape:cx="97.520661" inkscape:cy="157.02479" inkscape:deskcolor="#d1d1d1" inkscape:pagecheckerboard="0" inkscape:pageopacity="0.0" inkscape:showpageshadow="2" inkscape:window-height="1018" inkscape:window-maximized="0" inkscape:window-width="958" inkscape:window-x="946" inkscape:window-y="0" inkscape:zoom="2.1175" pagecolor="" showgrid="false">
   </sodipodi:namedview>
   <g id="g8" inkscape:groupmode="layer" inkscape:label="Image">
    <path d="M 29.686839,195.88256 C 8.3467987,190.41216 -2.6261213,168.1575 6.6400487,149.14032 c 11.0614603,-22.7017 45.1224403,-18.15671 47.3520703,6.31853 1.54064,16.91199 -18.10402,27.31399 -29.52491,15.63365 -7.81151,-7.98896 -3.14925,-24.11541 5.58916,-19.33253 5.3964,2.95368 3.23374,10.35719 -3.02547,10.35719 -5.37512,0 -5.88269,0.67861 -3.67009,4.9068 6.83651,13.06433 27.01561,5.09379 26.9268,-10.6358 -0.1514,-26.81504 -40.6813503,-25.51316 -42.8617503,1.37678 -2.45247,30.24546 33.3985803,44.30905 54.6232403,21.4275 12.98883,-14.00277 12.24003,-42.60721 -1.11536,-42.60721 -6.82416,0 -12.83705,-2.286 -15.88172,-6.03793 -2.63693,-3.24949 5.87908,-4.34128 13.34445,-1.71083 7.62842,2.68793 7.76722,2.41621 2.4235,-4.74443 -6.69435,-8.97049 -20.98598,-18.57416 -23.83616,-16.01736 -8.03685,7.20955 -26.51711,10.39607 -31.3899803,5.4125 -2.75812,-2.82076 11.7268003,-9.1924 20.7632403,-9.13335 9.40879,0.0615 9.37943,0.30747 0.57017,-4.777107 -32.1064103,-18.531345 -31.6897403,-64.843277 0.64722,-71.93585 28.38551,-6.225888 45.98865,34.442931 19.40288,44.826773 -17.17824,6.709458 -33.50096,-12.118165 -21.88559,-25.244182 4.76926,-5.389536 13.46534,-2.111955 10.32395,3.891129 -1.73853,3.322258 -6.10504,3.459038 -7.9548,0.249184 -1.95097,-3.385472 -4.10199,0.06268 -4.08943,6.555496 0.0306,15.844089 21.80311,18.685375 28.73315,3.749648 10.63317,-22.916756 -18.87378,-40.106786 -37.00842,-21.560202 -15.48845034,15.840288 -6.5611403,44.073549 18.51469,58.554062 3.61792,2.089249 9.91793,5.768179 14.00001,8.175399 l 7.42198,4.37677 0.0107,-13.191821 c 0.009,-11.115824 0.51823,-14.240903 3.23583,-19.858165 l 3.22513,-6.666347 2.80835,4.536231 c 4.79541,7.745882 4.66396,20.767025 -0.31065,30.771972 l -4.06447,8.17446 5.49573,6.31663 c 9.31946,10.71152 12.49407,19.37915 12.51883,34.18019 l 0.0212,12.6824 3.02589,-2.90724 c 2.04278,-1.9627 5.37008,-3.10607 10.24106,-3.51918 6.74043,-0.57166 7.32181,-0.91352 8.835711,-5.19527 2.67798,-7.57403 15.01844,-16.89215 15.00218,-11.32793 -0.0101,3.45835 -5.53568,10.87514 -10.19803,13.68848 l -4.78081,2.88482 3.87261,2.40858 c 2.12994,1.3247 8.38576,7.1998 13.90182,13.05579 20.29599,21.5466 40.38549,20.19735 47.23164,-3.17221 6.66115,-22.73793 -25.05159,-38.74935 -34.96952,-17.65571 -5.65765,12.03277 9.24079,25.47711 18.61646,16.79948 4.27717,-3.9587 3.57295,-6.99178 -1.61968,-6.97598 -6.04537,0.0183 -6.78668,-7.98307 -0.80521,-8.69111 10.87793,-1.2876 10.19902,16.69532 -0.77008,20.39768 -17.7635,5.99566 -25.49592,-22.05938 -8.60526,-31.22201 22.44346,-12.17486 45.96002,15.95941 31.7265,37.95628 -10.28486,15.89452 -29.44112,16.35863 -46.36492,1.1233 -6.32376,-5.69285 -6.32945,-5.69471 -5.36184,-1.7519 1.05962,4.31769 -0.0936,11.87334 -1.81212,11.87334 -2.22504,0 -4.43067,-8.50913 -3.76686,-14.53221 0.78234,-7.09856 -2.73368,-11.38704 -11.861991,-14.46811 -15.44865,-5.21431 -27.35287,9.8595 -17.36922,21.99392 6.08799,7.39952 18.434981,4.37196 18.434981,-4.52035 0,-5.06003 -1.306041,-6.08582 -3.645901,-2.8636 -1.54123,2.12244 -2.42401,2.35232 -4.37177,1.13841 -6.16634,-3.84308 -1.49216,-10.99288 4.89951,-7.49444 9.742871,5.33267 4.494951,22.12649 -6.91435,22.12649 -8.92719,0 -15.94441,-7.39996 -15.94441,-16.81404 v -4.53017 l -6.00723,7.02317 c -9.48443,11.08842 -25.38796,16.35901 -38.90584,12.89378 z m 139.967371,-3.05809 c 2.40419,-2.46692 4.65966,-5.38124 5.01214,-6.47628 0.50349,-1.56417 1.64055,-1.21112 5.30454,1.64703 2.56505,2.00088 7.38408,4.87133 10.70897,6.37881 l 6.16477,2.80192 -15.84057,0.0363 -15.7211,0.0974 4.37125,-4.48535 z M 3.1950387,18.931323 c 0.0678,-10.6853729 -0.41228,-16.9707218 0.18893,-14.9493933 1.49888,5.0394324 6.2851,12.5741403 10.0439403,17.7096023 1.80564,2.466935 2.64483,4.485339 1.86487,4.485339 -0.77997,0 -3.84714,2.484189 -6.8159303,5.520417 l -5.3978,5.520419 z" id="path237" sodipodi:nodetypes="ssssssssssssssssssssssssssssccscsscsscssssscssssscsssssssssssssssscssscssscccccssssscs" style="fill-opacity:1;stroke:none;stroke-width:0;stroke-linecap:round;stroke-linejoin:round;stroke-dasharray:none;stroke-opacity:1;paint-order:stroke markers fill">
    </path>
   </g>
  </svg>
 </g>
 <!-- UR -->
 <g transform="translate(620,5) translate(50, 30) scale(-1,-1) translate(-50, -50) scale(0.4)">
  <svg height="200" id="svg2" inkscape:version="1.2.2 (732a01da63, 2022-12-09)" sodipodi:docname="E.svg" version="1.1" viewbox="0 0 200 200" width="200" xmlns="http://www.w3.org/2000/svg" xmlns:inkscape="http://www.inkscape.org/namespaces/inkscape" xmlns:sodipodi="http://sodipodi.sourceforge.net/DTD/sodipodi-0.dtd" xmlns:svg="http://www.w3.org/2000/svg">
   <defs id="defs6">
    <inkscape:path-effect add_other_stroke_width="inkscape_1.0_and_up" add_stroke_width="inkscape_1.0_and_up" both="false" crossing_points_vector="" effect="knot" id="path-effect280" interruption_width="3" inverse_width="false" is_visible="true" lpeversion="1" prop_to_stroke_width="true" switcher_size="15">
    </inkscape:path-effect>
   </defs>
   <sodipodi:namedview bordercolor="" borderopacity="0.25" id="namedview4" inkscape:current-layer="g8" inkscape:cx="97.520661" inkscape:cy="157.02479" inkscape:deskcolor="#d1d1d1" inkscape:pagecheckerboard="0" inkscape:pageopacity="0.0" inkscape:showpageshadow="2" inkscape:window-height="1018" inkscape:window-maximized="0" inkscape:window-width="958" inkscape:window-x="946" inkscape:window-y="0" inkscape:zoom="2.1175" pagecolor="" showgrid="false">
   </sodipodi:namedview>
   <g id="g8" inkscape:groupmode="layer" inkscape:label="Image">
    <path d="M 29.686839,195.88256 C 8.3467987,190.41216 -2.6261213,168.1575 6.6400487,149.14032 c 11.0614603,-22.7017 45.1224403,-18.15671 47.3520703,6.31853 1.54064,16.91199 -18.10402,27.31399 -29.52491,15.63365 -7.81151,-7.98896 -3.14925,-24.11541 5.58916,-19.33253 5.3964,2.95368 3.23374,10.35719 -3.02547,10.35719 -5.37512,0 -5.88269,0.67861 -3.67009,4.9068 6.83651,13.06433 27.01561,5.09379 26.9268,-10.6358 -0.1514,-26.81504 -40.6813503,-25.51316 -42.8617503,1.37678 -2.45247,30.24546 33.3985803,44.30905 54.6232403,21.4275 12.98883,-14.00277 12.24003,-42.60721 -1.11536,-42.60721 -6.82416,0 -12.83705,-2.286 -15.88172,-6.03793 -2.63693,-3.24949 5.87908,-4.34128 13.34445,-1.71083 7.62842,2.68793 7.76722,2.41621 2.4235,-4.74443 -6.69435,-8.97049 -20.98598,-18.57416 -23.83616,-16.01736 -8.03685,7.20955 -26.51711,10.39607 -31.3899803,5.4125 -2.75812,-2.82076 11.7268003,-9.1924 20.7632403,-9.13335 9.40879,0.0615 9.37943,0.30747 0.57017,-4.777107 -32.1064103,-18.531345 -31.6897403,-64.843277 0.64722,-71.93585 28.38551,-6.225888 45.98865,34.442931 19.40288,44.826773 -17.17824,6.709458 -33.50096,-12.118165 -21.88559,-25.244182 4.76926,-5.389536 13.46534,-2.111955 10.32395,3.891129 -1.73853,3.322258 -6.10504,3.459038 -7.9548,0.249184 -1.95097,-3.385472 -4.10199,0.06268 -4.08943,6.555496 0.0306,15.844089 21.80311,18.685375 28.73315,3.749648 10.63317,-22.916756 -18.87378,-40.106786 -37.00842,-21.560202 -15.48845034,15.840288 -6.5611403,44.073549 18.51469,58.554062 3.61792,2.089249 9.91793,5.768179 14.00001,8.175399 l 7.42198,4.37677 0.0107,-13.191821 c 0.009,-11.115824 0.51823,-14.240903 3.23583,-19.858165 l 3.22513,-6.666347 2.80835,4.536231 c 4.79541,7.745882 4.66396,20.767025 -0.31065,30.771972 l -4.06447,8.17446 5.49573,6.31663 c 9.31946,10.71152 12.49407,19.37915 12.51883,34.18019 l 0.0212,12.6824 3.02589,-2.90724 c 2.04278,-1.9627 5.37008,-3.10607 10.24106,-3.51918 6.74043,-0.57166 7.32181,-0.91352 8.835711,-5.19527 2.67798,-7.57403 15.01844,-16.89215 15.00218,-11.32793 -0.0101,3.45835 -5.53568,10.87514 -10.19803,13.68848 l -4.78081,2.88482 3.87261,2.40858 c 2.12994,1.3247 8.38576,7.1998 13.90182,13.05579 20.29599,21.5466 40.38549,20.19735 47.23164,-3.17221 6.66115,-22.73793 -25.05159,-38.74935 -34.96952,-17.65571 -5.65765,12.03277 9.24079,25.47711 18.61646,16.79948 4.27717,-3.9587 3.57295,-6.99178 -1.61968,-6.97598 -6.04537,0.0183 -6.78668,-7.98307 -0.80521,-8.69111 10.87793,-1.2876 10.19902,16.69532 -0.77008,20.39768 -17.7635,5.99566 -25.49592,-22.05938 -8.60526,-31.22201 22.44346,-12.17486 45.96002,15.95941 31.7265,37.95628 -10.28486,15.89452 -29.44112,16.35863 -46.36492,1.1233 -6.32376,-5.69285 -6.32945,-5.69471 -5.36184,-1.7519 1.05962,4.31769 -0.0936,11.87334 -1.81212,11.87334 -2.22504,0 -4.43067,-8.50913 -3.76686,-14.53221 0.78234,-7.09856 -2.73368,-11.38704 -11.861991,-14.46811 -15.44865,-5.21431 -27.35287,9.8595 -17.36922,21.99392 6.08799,7.39952 18.434981,4.37196 18.434981,-4.52035 0,-5.06003 -1.306041,-6.08582 -3.645901,-2.8636 -1.54123,2.12244 -2.42401,2.35232 -4.37177,1.13841 -6.16634,-3.84308 -1.49216,-10.99288 4.89951,-7.49444 9.742871,5.33267 4.494951,22.12649 -6.91435,22.12649 -8.92719,0 -15.94441,-7.39996 -15.94441,-16.81404 v -4.53017 l -6.00723,7.02317 c -9.48443,11.08842 -25.38796,16.35901 -38.90584,12.89378 z m 139.967371,-3.05809 c 2.40419,-2.46692 4.65966,-5.38124 5.01214,-6.47628 0.50349,-1.56417 1.64055,-1.21112 5.30454,1.64703 2.56505,2.00088 7.38408,4.87133 10.70897,6.37881 l 6.16477,2.80192 -15.84057,0.0363 -15.7211,0.0974 4.37125,-4.48535 z M 3.1950387,18.931323 c 0.0678,-10.6853729 -0.41228,-16.9707218 0.18893,-14.9493933 1.49888,5.0394324 6.2851,12.5741403 10.0439403,17.7096023 1.80564,2.466935 2.64483,4.485339 1.86487,4.485339 -0.77997,0 -3.84714,2.484189 -6.8159303,5.520417 l -5.3978,5.520419 z" id="path237" sodipodi:nodetypes="ssssssssssssssssssssssssssssccscsscsscssssscssssscsssssssssssssssscssscssscccccssssscs" style="fill-opacity:1;stroke:none;stroke-width:0;stroke-linecap:round;stroke-linejoin:round;stroke-dasharray:none;stroke-opacity:1;paint-order:stroke markers fill">
    </path>
   </g>
  </svg>
 </g>
 <!-- BL -->
 <g transform="translate(5,325) scale(0.4)">
  <svg height="200" id="svg2" inkscape:version="1.2.2 (732a01da63, 2022-12-09)" sodipodi:docname="E.svg" version="1.1" viewbox="0 0 200 200" width="200" xmlns="http://www.w3.org/2000/svg" xmlns:inkscape="http://www.inkscape.org/namespaces/inkscape" xmlns:sodipodi="http://sodipodi.sourceforge.net/DTD/sodipodi-0.dtd" xmlns:svg="http://www.w3.org/2000/svg">
   <defs id="defs6">
    <inkscape:path-effect add_other_stroke_width="inkscape_1.0_and_up" add_stroke_width="inkscape_1.0_and_up" both="false" crossing_points_vector="" effect="knot" id="path-effect280" interruption_width="3" inverse_width="false" is_visible="true" lpeversion="1" prop_to_stroke_width="true" switcher_size="15">
    </inkscape:path-effect>
   </defs>
   <sodipodi:namedview bordercolor="" borderopacity="0.25" id="namedview4" inkscape:current-layer="g8" inkscape:cx="97.520661" inkscape:cy="157.02479" inkscape:deskcolor="#d1d1d1" inkscape:pagecheckerboard="0" inkscape:pageopacity="0.0" inkscape:showpageshadow="2" inkscape:window-height="1018" inkscape:window-maximized="0" inkscape:window-width="958" inkscape:window-x="946" inkscape:window-y="0" inkscape:zoom="2.1175" pagecolor="" showgrid="false">
   </sodipodi:namedview>
   <g id="g8" inkscape:groupmode="layer" inkscape:label="Image">
    <path d="M 29.686839,195.88256 C 8.3467987,190.41216 -2.6261213,168.1575 6.6400487,149.14032 c 11.0614603,-22.7017 45.1224403,-18.15671 47.3520703,6.31853 1.54064,16.91199 -18.10402,27.31399 -29.52491,15.63365 -7.81151,-7.98896 -3.14925,-24.11541 5.58916,-19.33253 5.3964,2.95368 3.23374,10.35719 -3.02547,10.35719 -5.37512,0 -5.88269,0.67861 -3.67009,4.9068 6.83651,13.06433 27.01561,5.09379 26.9268,-10.6358 -0.1514,-26.81504 -40.6813503,-25.51316 -42.8617503,1.37678 -2.45247,30.24546 33.3985803,44.30905 54.6232403,21.4275 12.98883,-14.00277 12.24003,-42.60721 -1.11536,-42.60721 -6.82416,0 -12.83705,-2.286 -15.88172,-6.03793 -2.63693,-3.24949 5.87908,-4.34128 13.34445,-1.71083 7.62842,2.68793 7.76722,2.41621 2.4235,-4.74443 -6.69435,-8.97049 -20.98598,-18.57416 -23.83616,-16.01736 -8.03685,7.20955 -26.51711,10.39607 -31.3899803,5.4125 -2.75812,-2.82076 11.7268003,-9.1924 20.7632403,-9.13335 9.40879,0.0615 9.37943,0.30747 0.57017,-4.777107 -32.1064103,-18.531345 -31.6897403,-64.843277 0.64722,-71.93585 28.38551,-6.225888 45.98865,34.442931 19.40288,44.826773 -17.17824,6.709458 -33.50096,-12.118165 -21.88559,-25.244182 4.76926,-5.389536 13.46534,-2.111955 10.32395,3.891129 -1.73853,3.322258 -6.10504,3.459038 -7.9548,0.249184 -1.95097,-3.385472 -4.10199,0.06268 -4.08943,6.555496 0.0306,15.844089 21.80311,18.685375 28.73315,3.749648 10.63317,-22.916756 -18.87378,-40.106786 -37.00842,-21.560202 -15.48845034,15.840288 -6.5611403,44.073549 18.51469,58.554062 3.61792,2.089249 9.91793,5.768179 14.00001,8.175399 l 7.42198,4.37677 0.0107,-13.191821 c 0.009,-11.115824 0.51823,-14.240903 3.23583,-19.858165 l 3.22513,-6.666347 2.80835,4.536231 c 4.79541,7.745882 4.66396,20.767025 -0.31065,30.771972 l -4.06447,8.17446 5.49573,6.31663 c 9.31946,10.71152 12.49407,19.37915 12.51883,34.18019 l 0.0212,12.6824 3.02589,-2.90724 c 2.04278,-1.9627 5.37008,-3.10607 10.24106,-3.51918 6.74043,-0.57166 7.32181,-0.91352 8.835711,-5.19527 2.67798,-7.57403 15.01844,-16.89215 15.00218,-11.32793 -0.0101,3.45835 -5.53568,10.87514 -10.19803,13.68848 l -4.78081,2.88482 3.87261,2.40858 c 2.12994,1.3247 8.38576,7.1998 13.90182,13.05579 20.29599,21.5466 40.38549,20.19735 47.23164,-3.17221 6.66115,-22.73793 -25.05159,-38.74935 -34.96952,-17.65571 -5.65765,12.03277 9.24079,25.47711 18.61646,16.79948 4.27717,-3.9587 3.57295,-6.99178 -1.61968,-6.97598 -6.04537,0.0183 -6.78668,-7.98307 -0.80521,-8.69111 10.87793,-1.2876 10.19902,16.69532 -0.77008,20.39768 -17.7635,5.99566 -25.49592,-22.05938 -8.60526,-31.22201 22.44346,-12.17486 45.96002,15.95941 31.7265,37.95628 -10.28486,15.89452 -29.44112,16.35863 -46.36492,1.1233 -6.32376,-5.69285 -6.32945,-5.69471 -5.36184,-1.7519 1.05962,4.31769 -0.0936,11.87334 -1.81212,11.87334 -2.22504,0 -4.43067,-8.50913 -3.76686,-14.53221 0.78234,-7.09856 -2.73368,-11.38704 -11.861991,-14.46811 -15.44865,-5.21431 -27.35287,9.8595 -17.36922,21.99392 6.08799,7.39952 18.434981,4.37196 18.434981,-4.52035 0,-5.06003 -1.306041,-6.08582 -3.645901,-2.8636 -1.54123,2.12244 -2.42401,2.35232 -4.37177,1.13841 -6.16634,-3.84308 -1.49216,-10.99288 4.89951,-7.49444 9.742871,5.33267 4.494951,22.12649 -6.91435,22.12649 -8.92719,0 -15.94441,-7.39996 -15.94441,-16.81404 v -4.53017 l -6.00723,7.02317 c -9.48443,11.08842 -25.38796,16.35901 -38.90584,12.89378 z m 139.967371,-3.05809 c 2.40419,-2.46692 4.65966,-5.38124 5.01214,-6.47628 0.50349,-1.56417 1.64055,-1.21112 5.30454,1.64703 2.56505,2.00088 7.38408,4.87133 10.70897,6.37881 l 6.16477,2.80192 -15.84057,0.0363 -15.7211,0.0974 4.37125,-4.48535 z M 3.1950387,18.931323 c 0.0678,-10.6853729 -0.41228,-16.9707218 0.18893,-14.9493933 1.49888,5.0394324 6.2851,12.5741403 10.0439403,17.7096023 1.80564,2.466935 2.64483,4.485339 1.86487,4.485339 -0.77997,0 -3.84714,2.484189 -6.8159303,5.520417 l -5.3978,5.520419 z" id="path237" sodipodi:nodetypes="ssssssssssssssssssssssssssssccscsscsscssssscssssscsssssssssssssssscssscssscccccssssscs" style="fill-opacity:1;stroke:none;stroke-width:0;stroke-linecap:round;stroke-linejoin:round;stroke-dasharray:none;stroke-opacity:1;paint-order:stroke markers fill">
    </path>
   </g>
  </svg>
 </g>
 <!-- BR -->
 <g transform="translate(620,325) translate(50, 50) scale(-1,1) translate(-50, -50) scale(0.4)">
  <svg height="200" id="svg2" inkscape:version="1.2.2 (732a01da63, 2022-12-09)" sodipodi:docname="E.svg" version="1.1" viewbox="0 0 200 200" width="200" xmlns="http://www.w3.org/2000/svg" xmlns:inkscape="http://www.inkscape.org/namespaces/inkscape" xmlns:sodipodi="http://sodipodi.sourceforge.net/DTD/sodipodi-0.dtd" xmlns:svg="http://www.w3.org/2000/svg">
   <defs id="defs6">
    <inkscape:path-effect add_other_stroke_width="inkscape_1.0_and_up" add_stroke_width="inkscape_1.0_and_up" both="false" crossing_points_vector="" effect="knot" id="path-effect280" interruption_width="3" inverse_width="false" is_visible="true" lpeversion="1" prop_to_stroke_width="true" switcher_size="15">
    </inkscape:path-effect>
   </defs>
   <sodipodi:namedview bordercolor="" borderopacity="0.25" id="namedview4" inkscape:current-layer="g8" inkscape:cx="97.520661" inkscape:cy="157.02479" inkscape:deskcolor="#d1d1d1" inkscape:pagecheckerboard="0" inkscape:pageopacity="0.0" inkscape:showpageshadow="2" inkscape:window-height="1018" inkscape:window-maximized="0" inkscape:window-width="958" inkscape:window-x="946" inkscape:window-y="0" inkscape:zoom="2.1175" pagecolor="" showgrid="false">
   </sodipodi:namedview>
   <g id="g8" inkscape:groupmode="layer" inkscape:label="Image">
    <path d="M 29.686839,195.88256 C 8.3467987,190.41216 -2.6261213,168.1575 6.6400487,149.14032 c 11.0614603,-22.7017 45.1224403,-18.15671 47.3520703,6.31853 1.54064,16.91199 -18.10402,27.31399 -29.52491,15.63365 -7.81151,-7.98896 -3.14925,-24.11541 5.58916,-19.33253 5.3964,2.95368 3.23374,10.35719 -3.02547,10.35719 -5.37512,0 -5.88269,0.67861 -3.67009,4.9068 6.83651,13.06433 27.01561,5.09379 26.9268,-10.6358 -0.1514,-26.81504 -40.6813503,-25.51316 -42.8617503,1.37678 -2.45247,30.24546 33.3985803,44.30905 54.6232403,21.4275 12.98883,-14.00277 12.24003,-42.60721 -1.11536,-42.60721 -6.82416,0 -12.83705,-2.286 -15.88172,-6.03793 -2.63693,-3.24949 5.87908,-4.34128 13.34445,-1.71083 7.62842,2.68793 7.76722,2.41621 2.4235,-4.74443 -6.69435,-8.97049 -20.98598,-18.57416 -23.83616,-16.01736 -8.03685,7.20955 -26.51711,10.39607 -31.3899803,5.4125 -2.75812,-2.82076 11.7268003,-9.1924 20.7632403,-9.13335 9.40879,0.0615 9.37943,0.30747 0.57017,-4.777107 -32.1064103,-18.531345 -31.6897403,-64.843277 0.64722,-71.93585 28.38551,-6.225888 45.98865,34.442931 19.40288,44.826773 -17.17824,6.709458 -33.50096,-12.118165 -21.88559,-25.244182 4.76926,-5.389536 13.46534,-2.111955 10.32395,3.891129 -1.73853,3.322258 -6.10504,3.459038 -7.9548,0.249184 -1.95097,-3.385472 -4.10199,0.06268 -4.08943,6.555496 0.0306,15.844089 21.80311,18.685375 28.73315,3.749648 10.63317,-22.916756 -18.87378,-40.106786 -37.00842,-21.560202 -15.48845034,15.840288 -6.5611403,44.073549 18.51469,58.554062 3.61792,2.089249 9.91793,5.768179 14.00001,8.175399 l 7.42198,4.37677 0.0107,-13.191821 c 0.009,-11.115824 0.51823,-14.240903 3.23583,-19.858165 l 3.22513,-6.666347 2.80835,4.536231 c 4.79541,7.745882 4.66396,20.767025 -0.31065,30.771972 l -4.06447,8.17446 5.49573,6.31663 c 9.31946,10.71152 12.49407,19.37915 12.51883,34.18019 l 0.0212,12.6824 3.02589,-2.90724 c 2.04278,-1.9627 5.37008,-3.10607 10.24106,-3.51918 6.74043,-0.57166 7.32181,-0.91352 8.835711,-5.19527 2.67798,-7.57403 15.01844,-16.89215 15.00218,-11.32793 -0.0101,3.45835 -5.53568,10.87514 -10.19803,13.68848 l -4.78081,2.88482 3.87261,2.40858 c 2.12994,1.3247 8.38576,7.1998 13.90182,13.05579 20.29599,21.5466 40.38549,20.19735 47.23164,-3.17221 6.66115,-22.73793 -25.05159,-38.74935 -34.96952,-17.65571 -5.65765,12.03277 9.24079,25.47711 18.61646,16.79948 4.27717,-3.9587 3.57295,-6.99178 -1.61968,-6.97598 -6.04537,0.0183 -6.78668,-7.98307 -0.80521,-8.69111 10.87793,-1.2876 10.19902,16.69532 -0.77008,20.39768 -17.7635,5.99566 -25.49592,-22.05938 -8.60526,-31.22201 22.44346,-12.17486 45.96002,15.95941 31.7265,37.95628 -10.28486,15.89452 -29.44112,16.35863 -46.36492,1.1233 -6.32376,-5.69285 -6.32945,-5.69471 -5.36184,-1.7519 1.05962,4.31769 -0.0936,11.87334 -1.81212,11.87334 -2.22504,0 -4.43067,-8.50913 -3.76686,-14.53221 0.78234,-7.09856 -2.73368,-11.38704 -11.861991,-14.46811 -15.44865,-5.21431 -27.35287,9.8595 -17.36922,21.99392 6.08799,7.39952 18.434981,4.37196 18.434981,-4.52035 0,-5.06003 -1.306041,-6.08582 -3.645901,-2.8636 -1.54123,2.12244 -2.42401,2.35232 -4.37177,1.13841 -6.16634,-3.84308 -1.49216,-10.99288 4.89951,-7.49444 9.742871,5.33267 4.494951,22.12649 -6.91435,22.12649 -8.92719,0 -15.94441,-7.39996 -15.94441,-16.81404 v -4.53017 l -6.00723,7.02317 c -9.48443,11.08842 -25.38796,16.35901 -38.90584,12.89378 z m 139.967371,-3.05809 c 2.40419,-2.46692 4.65966,-5.38124 5.01214,-6.47628 0.50349,-1.56417 1.64055,-1.21112 5.30454,1.64703 2.56505,2.00088 7.38408,4.87133 10.70897,6.37881 l 6.16477,2.80192 -15.84057,0.0363 -15.7211,0.0974 4.37125,-4.48535 z M 3.1950387,18.931323 c 0.0678,-10.6853729 -0.41228,-16.9707218 0.18893,-14.9493933 1.49888,5.0394324 6.2851,12.5741403 10.0439403,17.7096023 1.80564,2.466935 2.64483,4.485339 1.86487,4.485339 -0.77997,0 -3.84714,2.484189 -6.8159303,5.520417 l -5.3978,5.520419 z" id="path237" sodipodi:nodetypes="ssssssssssssssssssssssssssssccscsscsscssssscssssscsssssssssssssssscssscssscccccssssscs" style="fill-opacity:1;stroke:none;stroke-width:0;stroke-linecap:round;stroke-linejoin:round;stroke-dasharray:none;stroke-opacity:1;paint-order:stroke markers fill">
    </path>
   </g>
  </svg>
 </g>
 <g transform="translate(10,10)">
  <!-- 0 -->
  <svg height="200" viewbox="0 0 700 200" width="700" xmlns="http://www.w3.org/2000/svg">
   <style>
    * {
          font-family: 'Segoe UI', Ubuntu, "Helvetica Neue", Sans-Serif
        }
   </style>
   <rect fill="#00000000" height="99%" rx="5" ry="5" stroke="" stroke-opacity="0" stroke-width="1" width="99.71428571428571%" x="1" y="1">
   </rect>
   <text style="font-size: 22px; " x="30" y="40">
    PYBrulin (Pierre-Yves BRULIN)
   </text>
   <g transform="translate(0,40)">
    <g transform="translate(30,30)">
     <g fill="" height="14" transform="translate(0,0)" width="14">
      <path d="M8 0C3.58 0 0 3.58 0 8c0 3.54 2.29 6.53 5.47 7.59.4.07.55-.17.55-.38 0-.19-.01-.82-.01-1.49-2.01.37-2.53-.49-2.69-.94-.09-.23-.48-.94-.82-1.13-.28-.15-.68-.52-.01-.53.63-.01 1.08.58 1.23.82.72 1.21 1.87.87 2.33.66.07-.52.28-.87.51-1.07-1.78-.2-3.64-.89-3.64-3.95 0-.87.31-1.59.82-2.15-.08-.2-.36-1.02.08-2.12 0 0 .67-.21 2.2.82.64-.18 1.32-.27 2-.27.68 0 1.36.09 2 .27 1.53-1.04 2.2-.82 2.2-.82.44 1.1.16 1.92.08 2.12.51.56.82 1.27.82 2.15 0 3.07-1.87 3.75-3.65 3.95.29.25.54.73.54 1.48 0 1.07-.01 1.93-.01 2.2 0 .21.15.46.55.38A8.013 8.013 0 0016 8c0-4.42-3.58-8-8-8z" fill-rule="evenodd">
      </path>
     </g>
     <g fill="" height="14" transform="translate(0,28)" width="14">
      <path d="M2 2.5A2.5 2.5 0 014.5 0h8.75a.75.75 0 01.75.75v12.5a.75.75 0 01-.75.75h-2.5a.75.75 0 110-1.5h1.75v-2h-8a1 1 0 00-.714 1.7.75.75 0 01-1.072 1.05A2.495 2.495 0 012 11.5v-9zm10.5-1V9h-8c-.356 0-.694.074-1 .208V2.5a1 1 0 011-1h8zM5 12.25v3.25a.25.25 0 00.4.2l1.45-1.087a.25.25 0 01.3 0L8.6 15.7a.25.25 0 00.4-.2v-3.25a.25.25 0 00-.25-.25h-3.5a.25.25 0 00-.25.25z" fill-rule="evenodd">
      </path>
     </g>
     <g fill="" height="14" transform="translate(0,56)" width="14">
      <path d="M1.5 8a6.5 6.5 0 1113 0 6.5 6.5 0 01-13 0zM8 0a8 8 0 100 16A8 8 0 008 0zm.5 4.75a.75.75 0 00-1.5 0v3.5a.75.75 0 00.471.696l2.5 1a.75.75 0 00.557-1.392L8.5 7.742V4.75z" fill-rule="evenodd">
      </path>
     </g>
     <g fill="" height="14" transform="translate(0,84)" width="14">
      <path d="M11.536 3.464a5 5 0 010 7.072L8 14.07l-3.536-3.535a5 5 0 117.072-7.072v.001zm1.06 8.132a6.5 6.5 0 10-9.192 0l3.535 3.536a1.5 1.5 0 002.122 0l3.535-3.536zM8 9a2 2 0 100-4 2 2 0 000 4z" fill-rule="evenodd">
      </path>
     </g>
     <text style=" font-size: 14px;" x="21" y="14">
      9.52k Contributions on GitHub
     </text>
     <text style=" font-size: 14px;" x="21" y="42">
      8 Public Repos
     </text>
     <text style=" font-size: 14px;" x="21" y="70">
      Joined GitHub 7 years ago
     </text>
     <text style=" font-size: 14px;" x="21" y="98">
      France
     </text>
    </g>
    <g color="" transform="translate(295,10)">
     <path d="M0,100.22222222222221C9.915824915824915,86.81851851851852,19.831649831649834,73.4148148148148,29.747474747474747,70.15555555555555C39.66329966329966,66.8962962962963,49.57912457912458,65.26666666666667,59.494949494949495,65.26666666666667C69.0909090909091,65.26666666666667,78.68686868686868,71.57456568149324,88.28282828282828,75.28888888888889C98.19865319865319,79.1270228698644,108.11447811447812,88,118.03030303030303,88C127.62626262626263,88,137.22222222222223,68.39652936913645,146.8181818181818,58.42222222222222C156.73400673400673,48.11543817041084,166.64983164983164,27.133333333333336,176.56565656565655,27.133333333333336C186.48148148148147,27.133333333333336,196.3973063973064,33.977777777777774,206.31313131313132,33.977777777777774C215.26936026936028,33.977777777777774,224.22558922558923,2.933333333333328,233.1818181818182,2.933333333333328C243.0976430976431,2.933333333333328,253.01346801346804,21.33069419145921,262.92929292929296,28.111111111111107C272.52525252525254,34.672804904322604,282.1212121212121,37.98471903950487,291.7171717171717,43.266666666666666C301.6329966329966,48.72467921473386,311.54882154882154,56.16064359441408,321.4646464646464,60.37777777777777C331.060606060606,64.45887537458135,340.65656565656565,63.06666666666666,350.25252525252523,68.44444444444444C360.1683501683502,74.00148148148148,370.08417508417506,90.90074074074074,380,107.8L380,110C370.08417508417506,110,360.1683501683502,110,350.25252525252523,110C340.65656565656565,110,331.060606060606,110,321.4646464646464,110C311.54882154882154,110,301.6329966329966,110,291.7171717171717,110C282.1212121212121,110,272.52525252525254,110,262.92929292929296,110C253.01346801346804,110,243.0976430976431,110,233.1818181818182,110C224.22558922558923,110,215.26936026936028,110,206.31313131313132,110C196.3973063973064,110,186.48148148148147,110,176.56565656565655,110C166.64983164983164,110,156.73400673400673,110,146.8181818181818,110C137.22222222222223,110,127.62626262626263,110,118.03030303030303,110C108.11447811447812,110,98.19865319865319,110,88.28282828282828,110C78.68686868686868,110,69.0909090909091,110,59.494949494949495,110C49.57912457912458,110,39.66329966329966,110,29.747474747474747,110C19.831649831649834,110,9.915824915824915,110,0,110Z" fill="" opacity="1" stroke="" transform="translate(-30,0)">
     </path>
     <g color="" fill="none" font-family="sans-serif" font-size="10" text-anchor="middle" transform="translate(-30,110)">
      <path class="domain"  >
      </path>
      <g class="tick" opacity="1" transform="translate(0.5,0)">
       <line  y2="6">
       </line>
       <text dy="0.71em"  y="9">
        24/07
       </text>
      </g>
      <g class="tick" opacity="1" transform="translate(59.994949494949495,0)">
       <line  y2="6">
       </line>
       <text dy="0.71em"  y="9">
        24/09
       </text>
      </g>
      <g class="tick" opacity="1" transform="translate(118.53030303030303,0)">
       <line  y2="6">
       </line>
       <text dy="0.71em"  y="9">
        24/11
       </text>
      </g>
      <g class="tick" opacity="1" transform="translate(177.06565656565655,0)">
       <line  y2="6">
       </line>
       <text dy="0.71em"  y="9">
        25/01
       </text>
      </g>
      <g class="tick" opacity="1" transform="translate(233.6818181818182,0)">
       <line  y2="6">
       </line>
       <text dy="0.71em"  y="9">
        25/03
       </text>
      </g>
      <g class="tick" opacity="1" transform="translate(292.2171717171717,0)">
       <line  y2="6">
       </line>
       <text dy="0.71em"  y="9">
        25/05
       </text>
      </g>
      <g class="tick" opacity="1" transform="translate(350.75252525252523,0)">
       <line  y2="6">
       </line>
       <text dy="0.71em"  y="9">
        25/07
       </text>
      </g>
     </g>
     <g color="" fill="none" font-family="sans-serif" font-size="10" text-anchor="start" transform="translate(350,0)">
      <path class="domain"  >
      </path>
      <g class="tick" opacity="1" transform="translate(0,110.5)">
       <line  x2="6">
       </line>
       <text dy="0.32em"  x="9">
        0
       </text>
      </g>
      <g class="tick" opacity="1" transform="translate(0,98.27777777777777)">
       <line  x2="6">
       </line>
       <text dy="0.32em"  x="9">
        50
       </text>
      </g>
      <g class="tick" opacity="1" transform="translate(0,86.05555555555556)">
       <line  x2="6">
       </line>
       <text dy="0.32em"  x="9">
        100
       </text>
      </g>
      <g class="tick" opacity="1" transform="translate(0,73.83333333333334)">
       <line  x2="6">
       </line>
       <text dy="0.32em"  x="9">
        150
       </text>
      </g>
      <g class="tick" opacity="1" transform="translate(0,61.611111111111114)">
       <line  x2="6">
       </line>
       <text dy="0.32em"  x="9">
        200
       </text>
      </g>
      <g class="tick" opacity="1" transform="translate(0,49.388888888888886)">
       <line  x2="6">
       </line>
       <text dy="0.32em"  x="9">
        250
       </text>
      </g>
      <g class="tick" opacity="1" transform="translate(0,37.16666666666667)">
       <line  x2="6">
       </line>
       <text dy="0.32em"  x="9">
        300
       </text>
      </g>
      <g class="tick" opacity="1" transform="translate(0,24.944444444444443)">
       <line  x2="6">
       </line>
       <text dy="0.32em"  x="9">
        350
       </text>
      </g>
      <g class="tick" opacity="1" transform="translate(0,12.722222222222229)">
       <line  x2="6">
       </line>
       <text dy="0.32em"  x="9">
        400
       </text>
      </g>
      <g class="tick" opacity="1" transform="translate(0,0.5)">
       <line  x2="6">
       </line>
       <text dy="0.32em"  x="9">
        450
       </text>
      </g>
     </g>
     <g>
      <text style=" font-size: 10px;" x="230" y="-15">
       contributions in the last year
      </text>
     </g>
    </g>
   </g>
  </svg>
  <!-- 1 -->
  <g transform="translate(0,180)">
   <svg height="200" viewbox="0 0 340 200" width="340" xmlns="http://www.w3.org/2000/svg">
    <style>
     * {
          font-family: 'Segoe UI', Ubuntu, "Helvetica Neue", Sans-Serif
        }
    </style>
    <rect fill="#00000000" height="99%" rx="5" ry="5" stroke="" stroke-opacity="0" stroke-width="1" width="99.41176470588235%" x="1" y="1">
    </rect>
    <text style="font-size: 22px; " x="30" y="40">
     Top Languages by Repo
    </text>
    <g transform="translate(0,40)">
     <g transform="translate(40,0)">
      <rect fill="#3572A5" height="14" stroke="#00000000" style="stroke-width: 1px;" width="14" y="18">
      </rect>
      <rect fill="#f34b7d" height="14" stroke="#00000000" style="stroke-width: 1px;" width="14" y="43.2">
      </rect>
      <rect fill="#3D6117" height="14" stroke="#00000000" style="stroke-width: 1px;" width="14" y="68.4">
      </rect>
      <rect fill="#da291c" height="14" stroke="#00000000" style="stroke-width: 1px;" width="14" y="93.60000000000002">
      </rect>
      <rect fill="#178600" height="14" stroke="#00000000" style="stroke-width: 1px;" width="14" y="118.80000000000001">
      </rect>
      <text style=" font-size: 14px;" x="16.8" y="30">
       Python
      </text>
      <text style=" font-size: 14px;" x="16.8" y="55.2">
       C++
      </text>
      <text style=" font-size: 14px;" x="16.8" y="80.4">
       TeX
      </text>
      <text style=" font-size: 14px;" x="16.8" y="105.60000000000002">
       PostScript
      </text>
      <text style=" font-size: 14px;" x="16.8" y="130.8">
       C#
      </text>
     </g>
     <g transform="translate( 230, 80 )">
      <g class="arc">
       <path d="M3.67394039744206e-15,-60A60,60,0,1,1,-58.688856044028334,12.474701449065584L-34.23516602568319,7.27690917862159A35,35,0,1,0,2.1431318985078682e-15,-35Z" stroke="#00000000" style="fill: #3572A5; stroke-width: 1px;">
       </path>
      </g>
      <g class="arc">
       <path d="M-58.688856044028334,12.474701449065584A60,60,0,0,1,-54.81272745855607,-24.404198584547988L-31.974091017491038,-14.235782507652994A35,35,0,0,0,-34.23516602568319,7.27690917862159Z" stroke="#00000000" style="fill: #f34b7d; stroke-width: 1px;">
       </path>
      </g>
      <g class="arc">
       <path d="M-54.81272745855607,-24.404198584547988A60,60,0,0,1,-35.267115137548394,-48.54101966249684L-20.572483830236564,-28.315594803123158A35,35,0,0,0,-31.974091017491038,-14.235782507652994Z" stroke="#00000000" style="fill: #3D6117; stroke-width: 1px;">
       </path>
      </g>
      <g class="arc">
       <path d="M-35.267115137548394,-48.54101966249684A60,60,0,0,1,-18.541019662496854,-57.06339097770921L-10.815594803123165,-33.28697807033037A35,35,0,0,0,-20.572483830236564,-28.315594803123158Z" stroke="#00000000" style="fill: #da291c; stroke-width: 1px;">
       </path>
      </g>
      <g class="arc">
       <path d="M-18.541019662496854,-57.06339097770921A60,60,0,0,1,-1.1021821192326178e-14,-60L-6.429395695523604e-15,-35A35,35,0,0,0,-10.815594803123165,-33.28697807033037Z" stroke="#00000000" style="fill: #178600; stroke-width: 1px;">
       </path>
      </g>
     </g>
    </g>
   </svg>
  </g>
  <!-- 2 -->
  <g transform="translate(360,180)">
   <svg height="200" viewbox="0 0 340 200" width="340" xmlns="http://www.w3.org/2000/svg">
    <style>
     * {
          font-family: 'Segoe UI', Ubuntu, "Helvetica Neue", Sans-Serif
        }
    </style>
    <rect fill="#00000000" height="99%" rx="5" ry="5" stroke="" stroke-opacity="0" stroke-width="1" width="99.41176470588235%" x="1" y="1">
    </rect>
    <text style="font-size: 22px; " x="30" y="40">
     Top Languages by Commit
    </text>
    <g transform="translate(0,40)">
     <g transform="translate(40,0)">
      <rect fill="#3572A5" height="14" stroke="#00000000" style="stroke-width: 1px;" width="14" y="18">
      </rect>
      <rect fill="#302B6D" height="14" stroke="#00000000" style="stroke-width: 1px;" width="14" y="43.2">
      </rect>
      <rect fill="#178600" height="14" stroke="#00000000" style="stroke-width: 1px;" width="14" y="68.4">
      </rect>
      <rect fill="#41b883" height="14" stroke="#00000000" style="stroke-width: 1px;" width="14" y="93.60000000000002">
      </rect>
      <rect fill="#da291c" height="14" stroke="#00000000" style="stroke-width: 1px;" width="14" y="118.80000000000001">
      </rect>
      <text style=" font-size: 14px;" x="16.8" y="30">
       Python
      </text>
      <text style=" font-size: 14px;" x="16.8" y="55.2">
       Puppet
      </text>
      <text style=" font-size: 14px;" x="16.8" y="80.4">
       C#
      </text>
      <text style=" font-size: 14px;" x="16.8" y="105.60000000000002">
       Vue
      </text>
      <text style=" font-size: 14px;" x="16.8" y="130.8">
       PostScript
      </text>
     </g>
     <g transform="translate( 230, 80 )">
      <g class="arc">
       <path d="M3.67394039744206e-15,-60A60,60,0,1,1,-51.669807280128815,30.499688779303092L-30.140720913408476,17.791485121260138A35,35,0,1,0,2.1431318985078682e-15,-35Z" stroke="#00000000" style="fill: #3572A5; stroke-width: 1px;">
       </path>
      </g>
      <g class="arc">
       <path d="M-51.669807280128815,30.499688779303092A60,60,0,0,1,-59.797463057894056,-4.925790478674034L-34.8818534504382,-2.87337777922652A35,35,0,0,0,-30.140720913408476,17.791485121260138Z" stroke="#00000000" style="fill: #302B6D; stroke-width: 1px;">
       </path>
      </g>
      <g class="arc">
       <path d="M-59.797463057894056,-4.925790478674034A60,60,0,0,1,-46.88176470757565,-37.44462762404661L-27.34769607941913,-21.842699447360523A35,35,0,0,0,-34.8818534504382,-2.87337777922652Z" stroke="#00000000" style="fill: #178600; stroke-width: 1px;">
       </path>
      </g>
      <g class="arc">
       <path d="M-46.88176470757565,-37.44462762404661A60,60,0,0,1,-24.365749887305185,-54.82982976837779L-14.213354100928026,-31.984067364887046A35,35,0,0,0,-27.34769607941913,-21.842699447360523Z" stroke="#00000000" style="fill: #41b883; stroke-width: 1px;">
       </path>
      </g>
      <g class="arc">
       <path d="M-24.365749887305185,-54.82982976837779A60,60,0,0,1,-1.1021821192326178e-14,-60L-6.429395695523604e-15,-35A35,35,0,0,0,-14.213354100928026,-31.984067364887046Z" stroke="#00000000" style="fill: #da291c; stroke-width: 1px;">
       </path>
      </g>
     </g>
    </g>
   </svg>
  </g>
  <!-- <g transform="translate(0,360)">
            <image
                href="profile-summary-card-output/transparent/3-stats.svg" />
        </g>
        <g transform="translate(360,360)">
            <image
                href="profile-summary-card-output/transparent/4-productive-time.svg" />
        </g> -->
 </g>
</svg>
